<svg xmlns="http://www.w3.org/2000/svg" viewBox="0 0 251 280"><defs><style>.cls-1{fill:#fff;}.cls-2{fill:#75b9d1;}.cls-3{fill:#0072c6;opacity:0.5;}.cls-10,.cls-3,.cls-8{isolation:isolate;}.cls-4{fill:#198ab3;}.cls-5{fill:#5bcbe4;}.cls-6{fill:#32bedd;}.cls-7{fill:#e3e3e4;}.cls-8{fill:#3c3c41;}.cls-10,.cls-8{opacity:0.25;}.cls-9{fill:#c8c8ca;}.cls-10,.cls-11{fill:#ebebeb;}.cls-12{fill:none;stroke:#cec9c9;stroke-width:0.5px;}.cls-13{fill:#f9f9f9;}.cls-14{fill:#fcfcfc;}</style></defs><title>OJ104601291</title><g id="source"><g id="text_shapes" data-name="text+shapes"><g id="Shapes"><rect id="Rectangle-path" class="cls-1" x="0.13" width="250.12" height="279.74"/><g id="Group"><polygon id="Shape" class="cls-2" points="250.13 218.02 140.62 279.74 140.62 252.36 250.13 190.64 250.13 218.02"/><polygon class="cls-3" points="250.13 218.02 140.62 279.74 140.62 252.36 250.13 190.64 250.13 218.02"/></g><polygon class="cls-4" points="140.62 279.74 0.13 198.62 0.13 171.24 140.62 252.36 140.62 279.74"/><polygon class="cls-3" points="140.62 279.74 0.13 198.62 0.13 171.24 140.62 252.36 140.62 279.74"/><polygon class="cls-2" points="250.13 190.64 140.62 252.36 140.62 224.98 250.13 163.26 250.13 190.64"/><polygon class="cls-5" points="250.13 190.64 140.62 252.36 140.62 224.98 250.13 163.26 250.13 190.64"/><polygon class="cls-4" points="140.62 252.36 0.13 171.24 0.13 143.87 140.62 224.98 140.62 252.36"/><polygon class="cls-6" points="140.62 252.36 0.13 171.24 0.13 143.87 140.62 224.98 140.62 252.36"/><polygon class="cls-7" points="250.13 163.26 140.62 224.98 140.62 197.6 250.13 135.88 250.13 163.26"/><polygon class="cls-8" points="250.13 163.26 140.62 224.98 140.62 197.6 250.13 135.88 250.13 163.26"/><polygon class="cls-9" points="140.62 224.98 0.13 143.87 0.13 116.49 140.62 197.61 140.62 224.98"/><polygon class="cls-8" points="140.62 224.98 0.13 143.87 0.13 116.49 140.62 197.61 140.62 224.98"/><polygon class="cls-7" points="250.13 135.88 140.62 197.6 140.62 170.22 250.13 108.5 250.13 135.88"/><polygon class="cls-8" points="250.13 135.88 140.62 197.6 140.62 170.22 250.13 108.5 250.13 135.88"/><polygon class="cls-9" points="140.62 197.6 0.13 116.48 0.13 89.11 140.62 170.22 140.62 197.6"/><polygon class="cls-8" points="140.62 197.6 0.13 116.48 0.13 89.11 140.62 170.22 140.62 197.6"/><polygon class="cls-7" points="250.13 108.49 140.62 170.22 140.62 142.84 250.13 81.12 250.13 108.49"/><polygon class="cls-10" points="250.13 108.49 140.62 170.22 140.62 142.84 250.13 81.12 250.13 108.49"/><polygon class="cls-9" points="140.62 170.22 0.13 89.1 0.13 61.72 140.62 142.84 140.62 170.22"/><polygon class="cls-10" points="140.62 170.22 0.13 89.1 0.13 61.72 140.62 142.84 140.62 170.22"/><polygon class="cls-11" points="140.62 142.84 0.13 61.73 109.63 0 250.13 81.12 140.62 142.84"/><polyline class="cls-12" points="0.13 115.95 140.62 197.1 250.13 135.38"/></g></g></g><g id="text"><path d="M38.23,103l.27-3.55-1-.09c-.14-.53-.32-1.11-.55-1.76a6.84,6.84,0,0,0,4.77-.38L43,98l-.15.14A19.29,19.29,0,0,0,47,103.4a11.69,11.69,0,0,0-.75,1.09c-.35-.36-.69-.72-1-1.08L45,106.94l-1.32-.77,0-.61-4.1-2.39-.05.61ZM41,95.15l.71,1.53a14.67,14.67,0,0,1-3.49.28c-.14-.44-.33-1-.6-1.74A12.27,12.27,0,0,0,41,95.15ZM41.4,93l1.69.75c.07.32.17.75.28,1.28L47,97.13l-.2,2.56-1.47-.85.1-1.22L39.14,94l-.09,1.21-1.47-.85.19-2.56L41.64,94Zm2.49,9.93-4.1-2.39-.1,1.34,4.1,2.39Zm-1.83-4.12a5.27,5.27,0,0,1-1.87.59l3.44,2A19.54,19.54,0,0,1,42.06,98.79Zm1.5-2q1.53,1.78,3.14,3.83l-.82.9q-1.34-1.9-3.05-4.07Z"/><path d="M52.35,111.11l.29-3.78,2.1,1.22a9.48,9.48,0,0,1-2.39-2.87c-.52.38-1.45.32-2.82-.16l2.32,1.34-.29,3.81L50.38,110l0-.44-1.61-.94,0,.44-1.17-.68.27-3.57-.45-.22a11.14,11.14,0,0,0-.12-1.32c2.08,1.15,3.37,1.55,3.85,1.2l-3.64-2.13.09-1.19,4.12,2.41a3.82,3.82,0,0,0,.11-.55l1.42.83c0,.19-.07.38-.11.54l1.36.8-.12-.55,1.3.57.19.78,1.53.89-.09,1.19-4-2.32a12.32,12.32,0,0,0,4,3.41,7.59,7.59,0,0,0-.35,1l-.42-.27-.27,3.53-1.17-.68,0-.45-1.62-.94,0,.42ZM48.43,97.39l4,2.32L52.15,103l-4-2.31Zm2.15,10L49,106.43l-.07,1,1.61.94Zm.43-6.28.07-.91-1.5-.87-.07.91Zm2.18-.92,4,2.31-.25,3.29-4-2.31Zm2.15,10-1.62-1-.08,1,1.62.95Zm.41-6.29.07-.91-1.47-.86-.07.91Z"/><path d="M58.15,104.44l4.23,2.47c-.07-.46-.18-1-.31-1.72l1.58.54c.19.92.34,1.65.43,2.17l3.86,2.25-.12,1.58-1.5-.88a7,7,0,0,1-2.55,3.2,22.1,22.1,0,0,0,3.71,4.14,8.1,8.1,0,0,0-1.25,1.07,26.47,26.47,0,0,1-3.75-4.65,10.37,10.37,0,0,1-4.17.1c-.31-.89-.61-1.65-.88-2.28a10.17,10.17,0,0,0,4,.2A19.2,19.2,0,0,1,59.66,107L58,106Zm6.45,5.41-3.37-2a15,15,0,0,0,1.43,4.3A4.42,4.42,0,0,0,64.6,109.85Z"/><path d="M70.43,109.75,71.8,111c-.31.7-.62,1.33-.93,1.92l-.66,8.68-1.36-.79.4-5.33a8.8,8.8,0,0,1-1,1.1c-.05-.92-.12-1.72-.18-2.39A20,20,0,0,0,70.43,109.75Zm.62,6.89,3.23,1.88.17-2.23-1.39-.81a11.56,11.56,0,0,1-.78,1.61c-.35-.45-.75-.92-1.21-1.42a18.41,18.41,0,0,0,1.5-3.89L73.91,113c-.12.44-.25.84-.38,1.22l1,.61.2-2.53,1.46.86L76,115.64l2.12,1.24-.12,1.5-2.11-1.23-.17,2.23,2.39,1.39L78,122.28l-2.39-1.39-.28,3.75-1.47-.86.29-3.75-3.23-1.88Z"/><path d="M80.68,124l.95,1.63a10.23,10.23,0,0,1-2.67.81c-.28-.64-.56-1.23-.83-1.79A6.86,6.86,0,0,0,80.68,124Zm-1.43-8.31q4.95,2.91,9,4.79l.1,1.41c-1.36-.65-2.79-1.35-4.28-2.12a19.6,19.6,0,0,1-2.34.1l3.36,1.77c.53,0,1.07-.08,1.62-.14l.87,1.66a32.37,32.37,0,0,1-6.28-.32q2.19,1.15,4.42,2.27c-.24-.45-.46-.86-.68-1.24l1-.32c.48.82,1.23,2.22,2.26,4.18l-1,.46c-.22-.45-.42-.88-.63-1.28l-2.45-1.31L84,128.3c0,.4-.15.64-.37.73a1.16,1.16,0,0,1-.93-.2l-1.64-.92a16.11,16.11,0,0,0-.14-1.75c.33.23.68.45,1,.67a1.06,1.06,0,0,0,.55.21c.1,0,.15-.13.16-.32l.15-1.89c-1.52-.79-2.68-1.37-3.5-1.73l-.24-1.65a27.2,27.2,0,0,0,3.85.23c-1.35-.68-2.39-1.18-3.13-1.49l-.27-1.64a10.05,10.05,0,0,0,2.4,0l-2.59-1.42C79.35,116.71,79.31,116.2,79.25,115.65Zm6.58,11.19c.7,1,1.48,2.23,2.35,3.63l-1,.58c-.66-1.14-1.42-2.37-2.26-3.68Z"/><path d="M97.53,133.8a14.75,14.75,0,0,0,1.17,1.29,3.74,3.74,0,0,1-.66,2c-.25.2-.62.16-1.11-.13l-.6-.35a2.11,2.11,0,0,1-1.06-2.16l.28-3.73-.82-.41a6.33,6.33,0,0,1-1,3.34,2.12,2.12,0,0,1-1.63.81c-.26-.54-.56-1.14-.91-1.81-.91-.42-1.77-.8-2.58-1.12v-1.62q1,.51,3.48,1.59c0,.29-.07.59-.1.93.78-.14,1.24-1,1.4-2.72-.38-.17-.68-.29-.91-.37l-.26-1.64a3.5,3.5,0,0,0,1.92-1.47l-1.71-1,.1-1.33,2.24,1.31c-.08-.38-.19-.78-.3-1.2l1.53.56c.15.53.29,1.07.42,1.6L99,127.67l-.1,1.33-3.24-1.89A10.12,10.12,0,0,1,94,128.57c.85.46,1.79,1,2.82,1.48-.2-.54-.41-1.09-.64-1.65l1.06-.08c.64,1.51,1.17,2.89,1.61,4.13l-1.16.13-.3-.93-.5-.26-.25,3.37a.56.56,0,0,0,.23.6l.09.06c.16.09.27.06.33-.11A9.12,9.12,0,0,0,97.53,133.8Zm-6.9-5.19,1.51.68a8.8,8.8,0,0,0-.17,1.29,24.05,24.05,0,0,0-2.79-1.29L89,127.81a6.85,6.85,0,0,0,1.58-1.29c-.53-.26-1-.46-1.31-.61L89,124.38a9.62,9.62,0,0,0,2-2.75L92.27,123a14.87,14.87,0,0,1-1.83,2.08q.42.24,1,.51l.53-.61,1,1.27C92.13,127.14,91.36,127.92,90.63,128.61Z"/><path d="M188.28,125.61l9.87-5.78.08,1.57-1.13.66.38,7.22a3,3,0,0,1-.22,1.35,2.83,2.83,0,0,1-.78,1.05,25.34,25.34,0,0,1-2.55,1.65c-.13-.51-.29-1-.48-1.58.78-.41,1.33-.71,1.66-.9a1.45,1.45,0,0,0,.8-1.39l-.35-6.5-7.2,4.21Zm1.23,2.11,4.73-2.77.26,5-3.31,1.94,0,.68-1.42.83Zm3.5,1.68-.11-2.22-1.9,1.11.11,2.22Z"/><path d="M200.15,125l.26-4.25-1.27.74L199,119l9.28-5.43.14,2.5-1.44.84-.05-1-6.42,3.75,0,.59,1.26-.74-.05.73,5.9-3.45.08,1.45-6.07,3.55,0,.9,6.7-3.92.07,3.56a4.38,4.38,0,0,1-.43,2.07,3.43,3.43,0,0,1-1.2,1.37c-.5.32-1.28.79-2.33,1.4-.1-.39-.24-.86-.42-1.43l2-1.1a2,2,0,0,0,.72-.68,1.59,1.59,0,0,0,.24-.83c0-.29,0-1,0-2Zm-1.09,1.53,7.24-4.23.08,1.45L199.14,128Z"/><path d="M57.28,129.24l3,1.73-.64,9.28-1.85-1.06,0,.68-1.15-.67Zm1.35,9,.18-2.62-.73-.42-.18,2.62Zm.45-6.52-.73-.42-.18,2.52.73.42Zm1,4.55.57.32.28-4.16,2,1.14c0-.58.09-1.18.13-1.79l1.23.71c0,.28,0,.87-.12,1.79l2,1.16-.29,4.16.57.33-.1,1.37L64.15,140a8.62,8.62,0,0,0,2.25,4.16l-1.06.83a11.2,11.2,0,0,1-2.12-4.82,3,3,0,0,1-2.81,2c-.12-.3-.4-.92-.84-1.85,1.42.1,2.31-.39,2.66-1.47L60,137.64Zm1.71,1,.74.43a26.18,26.18,0,0,0,.27-2.74l-.81-.47ZM65,136.15l-.89-.51c-.08,1.12-.16,2-.26,2.74l1,.56Z"/><path d="M68.84,135.11l1.22,1a19.18,19.18,0,0,1-.67,1.89l-.62,8.95-1.22-.7.38-5.45c-.25.38-.51.74-.78,1.1q0-.78-.21-2.4A15.07,15.07,0,0,0,68.84,135.11Zm3.07,1.68,1.44.82a5.56,5.56,0,0,1-.46.5l3,1.74-.07,1-.67.44,1.64.94-.21,3-.72-.42.69,1.52-1.1.06a11.43,11.43,0,0,0,1.36,3.47,10.19,10.19,0,0,0-1,.68,14.31,14.31,0,0,1-1.28-4.09h-.35a6.85,6.85,0,0,1,0,1.36c-.1,1.4-.62,1.84-1.58,1.32l-1.21-.69c0-.4-.08-.82-.13-1.29a6.87,6.87,0,0,1-1.9.1c-.15-.8-.26-1.31-.31-1.53a5.39,5.39,0,0,0,3.75-.38c0-.17-.08-.33-.13-.51a5.69,5.69,0,0,1-3.07.47c-.09-.45-.19-.93-.32-1.43a6.56,6.56,0,0,0,3.14.17c0-.13-.09-.27-.14-.41a7.23,7.23,0,0,1-2.67-.25c-.09-.4-.23-.89-.41-1.47a6.39,6.39,0,0,0,2.46.48l-1.7-1,.14-2.11c-.2-.4-.41-.79-.62-1.18A4.43,4.43,0,0,0,71.91,136.79ZM71.19,141l1.51.87a2.18,2.18,0,0,0,.25-.64l-1.71-1Zm.19-1.84,2.32,1.33.62-.41-2.25-1.29A4.58,4.58,0,0,1,71.38,139.13ZM73,146.49a4.48,4.48,0,0,1-1.37.61c.38.26.66.44.83.54.33.19.51,0,.55-.52C73,147,73,146.74,73,146.49Zm2.85-1.69-2.58-1.48-.08.06a10.46,10.46,0,0,1,.69,1.7A11.69,11.69,0,0,0,75.84,144.8Zm-.28-1.32,0-.75-1.52-.87a5,5,0,0,1-.21.65Z"/><path d="M58.77,157.45l3,1.73-.64,9.28-1.85-1.06,0,.68-1.16-.67Zm1.34,9,.18-2.62-.73-.42L59.38,166Zm.45-6.52-.73-.42L59.65,162l.74.42Zm1,4.55.57.33.28-4.16,2,1.13c0-.58.09-1.17.13-1.78l1.23.7c0,.28,0,.88-.12,1.79l2,1.16-.29,4.16.57.33-.1,1.38-2.23-1.28a8.58,8.58,0,0,0,2.25,4.15l-1,.84a11.13,11.13,0,0,1-2.13-4.83,3,3,0,0,1-2.81,2.05c-.12-.3-.4-.91-.84-1.84,1.42.09,2.31-.4,2.66-1.47l-2.22-1.28Zm1.72,1,.73.42a25.85,25.85,0,0,0,.27-2.74l-.81-.47Zm3.14-1.09-.89-.51c-.08,1.12-.17,2-.27,2.74l1,.55Z"/><path d="M70.32,163.32l1.22,1a17.51,17.51,0,0,1-.67,1.89l-.62,9-1.21-.7.37-5.45c-.25.38-.51.75-.78,1.1,0-.52-.1-1.32-.21-2.39A14.86,14.86,0,0,0,70.32,163.32ZM73.4,165l1.43.83c-.15.17-.3.34-.46.5l3,1.74-.07,1-.67.45,1.64.94-.21,3-.72-.42.69,1.52-1.1.07a11.63,11.63,0,0,0,1.36,3.46c-.15.08-.5.3-1,.68A14.1,14.1,0,0,1,76,174.68l-.35,0a6.78,6.78,0,0,1,0,1.35c-.1,1.4-.62,1.85-1.58,1.33l-1.21-.7c0-.39-.08-.82-.13-1.28a7.3,7.3,0,0,1-1.9.09c-.15-.79-.26-1.3-.31-1.53a5.34,5.34,0,0,0,3.75-.38c0-.16-.08-.33-.13-.5a5.69,5.69,0,0,1-3.07.46c-.08-.45-.19-.92-.32-1.43a6.56,6.56,0,0,0,3.14.17c0-.13-.09-.26-.14-.4a7.27,7.27,0,0,1-2.67-.26c-.09-.4-.23-.89-.4-1.47a6.35,6.35,0,0,0,2.45.48l-1.7-1,.14-2.11c-.2-.4-.41-.8-.62-1.18A4.51,4.51,0,0,0,73.4,165Zm-.73,4.18,1.51.87a2.11,2.11,0,0,0,.25-.63l-1.7-1Zm.19-1.83,2.32,1.33.62-.41L73.55,167A5.7,5.7,0,0,1,72.86,167.35Zm1.61,7.35a4.3,4.3,0,0,1-1.36.61c.37.26.65.45.82.55.33.18.51,0,.55-.52A4.71,4.71,0,0,0,74.47,174.7ZM77.32,173l-2.58-1.48-.08.05a10.46,10.46,0,0,1,.69,1.7A10.74,10.74,0,0,0,77.32,173ZM77,171.69l.06-.75-1.52-.87a6.15,6.15,0,0,1-.22.65Z"/><path d="M57.15,192.81c-.31.3-.59.59-.84.86a21.21,21.21,0,0,1-1.43-2l-.05.76-2.11-1.21,0,.72L56.32,194l-.08,1.23-8.7-5,.08-1.23,3.66,2.1,0-.71-2.16-1.24,0-.71a6.63,6.63,0,0,1-1.55.28c-.17-.47-.39-1-.67-1.72a4.76,4.76,0,0,0,2.24-.15l-2-1.15.08-1.23,1.77,1,.25-3.55-1.48-.85.09-1.22,1.47.84.07-1,1.39.79-.07,1,3.6,2.07.07-1,1.38.79-.07,1,1.48.85-.09,1.22-1.47-.84-.25,3.55,1.76,1-.08,1.23-2-1.15A18.41,18.41,0,0,0,57.15,192.81Zm-5.68-4.46,1.39.8,0,.82,1.65.95q-.43-.75-.84-1.56l-2.88-1.65a6.08,6.08,0,0,1-1,.51l1.65.95Zm-1-2.08,3.6,2.07,0-.59-3.6-2.06Zm.1-1.47,3.6,2.07,0-.59-3.6-2.06Zm.11-1.5,3.6,2.07,0-.58-3.6-2.07Z"/><path d="M61.7,189l-1.29-.74a15.88,15.88,0,0,1-.63,1.61l1.49.86-.47,6.87-1-.58,0-.6-.63-.36,0,.79L58,196.16l.28-4.06c-.12.13-.24.26-.36.37a13.94,13.94,0,0,0-.41-2.1,6.64,6.64,0,0,0,1.6-2.9l-1-.57.09-1.31,3.58,2Zm-1.53,2.42-.63-.37-.26,3.73.63.37Zm7.24,5.4-.35,5.08-1.23-.7,0-.46L61.24,198l.32-4.63,1.23.7-.23,3.27,1.07.62.29-4.15-2.12-1.22.3-4.28,1.16.67-.2,2.92,1,.55.3-4.25,1.3.74-.3,4.26.9.51.2-2.93,1.16.66-.3,4.29-2-1.18-.29,4.15,1,.59.22-3.27Z"/><path d="M68.78,191.63l3,1.73-.64,9.28-1.85-1.06,0,.68-1.16-.67Zm1.35,9,.18-2.62-.73-.42-.18,2.62Zm.45-6.52-.73-.42-.18,2.52.73.42Zm1,4.55.57.33.29-4.17,2,1.14c0-.58.09-1.17.13-1.79l1.23.71c0,.28,0,.88-.12,1.79l2,1.16L77.41,202l.57.33-.1,1.38-2.23-1.28a8.66,8.66,0,0,0,2.24,4.15l-1,.83a11.33,11.33,0,0,1-2.13-4.82,3,3,0,0,1-2.8,2.05c-.12-.3-.4-.92-.84-1.84,1.42.09,2.31-.4,2.66-1.48L71.51,200Zm1.72,1,.74.42a25.85,25.85,0,0,0,.27-2.74l-.81-.47Zm3.14-1.09-.89-.51c-.08,1.12-.17,2-.26,2.74l1,.55Z"/><path d="M80.34,197.5l1.22,1a20,20,0,0,1-.67,1.89l-.62,9-1.22-.7.38-5.45c-.25.38-.51.75-.78,1.1,0-.52-.1-1.32-.21-2.39A15.25,15.25,0,0,0,80.34,197.5Zm3.07,1.68,1.44.82a4.48,4.48,0,0,1-.47.5l3,1.75-.07,1-.67.45,1.64.94-.21,3-.73-.42.7,1.52-1.11.07a11.64,11.64,0,0,0,1.37,3.46,10.19,10.19,0,0,0-1,.68A14.2,14.2,0,0,1,86,208.86l-.35,0a6.78,6.78,0,0,1,0,1.35c-.1,1.4-.63,1.84-1.58,1.33l-1.21-.7c0-.39-.08-.82-.13-1.28a7.33,7.33,0,0,1-1.9.09c-.16-.79-.26-1.3-.32-1.53a5.36,5.36,0,0,0,3.76-.38c0-.16-.08-.33-.13-.5a5.79,5.79,0,0,1-3.07.46c-.09-.45-.19-.93-.32-1.43a6.56,6.56,0,0,0,3.14.17,4,4,0,0,0-.15-.4,7.22,7.22,0,0,1-2.66-.26c-.09-.4-.23-.89-.41-1.47a6.36,6.36,0,0,0,2.46.48l-1.7-1,.14-2.11c-.2-.4-.41-.8-.63-1.18A4.47,4.47,0,0,0,83.41,199.18Zm-.72,4.18,1.51.87a2.08,2.08,0,0,0,.25-.64l-1.71-1Zm.19-1.83,2.32,1.33.62-.41-2.25-1.3A5.76,5.76,0,0,1,82.88,201.53Zm1.61,7.35a4.35,4.35,0,0,1-1.37.61L84,210c.33.18.51,0,.54-.52A4.53,4.53,0,0,0,84.49,208.88Zm2.85-1.68-2.58-1.48-.09.05a9.7,9.7,0,0,1,.7,1.7A11.68,11.68,0,0,0,87.34,207.2Zm-.28-1.33,0-.75-1.52-.87a3.53,3.53,0,0,1-.22.65Z"/><path d="M177.92,160.16a12,12,0,0,1,1.67.54l-.84,1.8c-.51-.26-1.05-.5-1.6-.74Zm.12-3.22c.73.17,1.31.32,1.74.47l-.88,1.73a11.36,11.36,0,0,0-1.65-.69Zm.42,6.5a8.31,8.31,0,0,0,1.33-.21c-.24,1.51-.48,3.14-.71,4.88-.47.08-.93.18-1.37.3C178,166.93,178.24,165.27,178.46,163.44Zm7.86-9.52-2.74,1.6c-.07.46-.17.93-.29,1.41L187,154.8l.07,1.33-2.09,1.22a3.87,3.87,0,0,0,2.44.14l-.56,1.93a4.38,4.38,0,0,1-.52,0,19.35,19.35,0,0,1,1.28,2l-1.06,1.18a16.58,16.58,0,0,0-1.32-2.38l.8-.86a3.66,3.66,0,0,1-2.49-1.26l-.7.4a18.3,18.3,0,0,1-2.56,4.69,6.84,6.84,0,0,0-1.05-.79,13.59,13.59,0,0,0,2-3l-1.44.83-.07-1.33,2.19-1.28a11.84,11.84,0,0,0,.33-1.43l-2.11,1.23-.07-1.33,6.19-3.62Zm-1.76,6.4a26.46,26.46,0,0,1,1.21,2.57l-1,1a23.47,23.47,0,0,0-1.07-2.59l.14,2.64a1.89,1.89,0,0,1-.19,1,1.87,1.87,0,0,1-.61.73q-.39.28-1.59,1a8.85,8.85,0,0,0-.38-1.27l-.23.66-1.14-.09c.51-1.28.93-2.54,1.29-3.78l1.13,0c-.31,1-.65,2.09-1,3.19a8.68,8.68,0,0,0,.9-.48,1,1,0,0,0,.49-1l-.19-3.6,1.32-.77.09,1.67Z"/><path d="M190.21,161.39c-.12-.49-.27-1-.44-1.55.42-.21.76-.4,1-.56a1,1,0,0,0,.37-.34.82.82,0,0,0,.15-.42c0-.16,0-.76,0-1.82s-.08-2.37-.15-3.94l-1,.57a20.28,20.28,0,0,1-1.4,9.21c-.26-.39-.56-.79-.88-1.2a17.4,17.4,0,0,0,1-7.24l-1.16.68-.08-1.54,1.19-.69c0-.68-.06-1.32-.09-1.94l1.32-.77.07,1.95,2.29-1.34.19,4.76.08,2.79a3.35,3.35,0,0,1-.25,1.44,2.54,2.54,0,0,1-.63.93A15,15,0,0,1,190.21,161.39Zm3.28-1.92L193,149.15l4.09-2.39.54,10.25-1.36.79-.05-1-1.38.81.06,1Zm2.27-10.39-1.37.81.32,6.22,1.38-.8Z"/><path d="M200.3,149.3a17.21,17.21,0,0,1-.71,6.89,11.08,11.08,0,0,0-1.2-.45,15.65,15.65,0,0,0,.57-5.87l-.2-3.67,3.88-2.27c-.14-.29-.28-.56-.42-.82l1.6-1.39c.18.33.37.72.59,1.17l3.44-2,.07,1.44-7.75,4.53Zm0-1L201.5,147c.67,1.15,1.3,2.38,1.89,3.67l-1.33,1.38C201.55,150.88,201,149.63,200.31,148.34Zm0,5.14,4.82-2.82q.49-2.66,1.15-6.72l1.42-.4c-.27,1.73-.65,3.82-1.14,6.29l1.72-1,.09,1.62-8,4.67Zm2.44-7.2L204,145.1a32.52,32.52,0,0,1,1.38,3.49l-1.34,1.23C203.57,148.39,203.14,147.21,202.77,146.28Z"/><path d="M218.26,143.35a2.71,2.71,0,0,1-.23,1.32,2.68,2.68,0,0,1-.88,1,16.65,16.65,0,0,1-1.59,1,11.88,11.88,0,0,0-.49-1.46l1.14-.59a1.14,1.14,0,0,0,.6-1.09l-.06-1.07-2.1,1.23.17,3.28-1.43.83-.17-3.27L211,145.8a10.62,10.62,0,0,1-.66,4.1,10.69,10.69,0,0,0-1.36-.22,11.52,11.52,0,0,0,.55-5l-.29-5.52,8.51-5Zm-7.42-2,2.15-1.25-.08-1.45-2.14,1.25Zm.16,3,2.14-1.25-.07-1.45-2.15,1.25Zm5.44-7.73-2.1,1.23.07,1.45,2.11-1.23Zm-1.87,5.64,2.1-1.23-.07-1.45-2.11,1.23Z"/><path d="M171,192.09a12.63,12.63,0,0,1,1.68.54l-.85,1.8c-.51-.26-1-.5-1.6-.74Zm.12-3.22a17.33,17.33,0,0,1,1.74.47l-.88,1.73a11.71,11.71,0,0,0-1.64-.69Zm.42,6.5a8.14,8.14,0,0,0,1.33-.21c-.24,1.51-.48,3.14-.71,4.88-.47.08-.92.18-1.36.3C171.09,198.86,171.34,197.2,171.56,195.37Zm7.86-9.52-2.74,1.6c-.07.46-.17.93-.29,1.42l3.66-2.14.07,1.33L178,189.28a3.84,3.84,0,0,0,2.43.14l-.55,1.93a4.73,4.73,0,0,1-.52,0,21.09,21.09,0,0,1,1.27,2.05l-1.06,1.18a17.48,17.48,0,0,0-1.31-2.38l.79-.86a3.68,3.68,0,0,1-2.49-1.26l-.69.4a18.66,18.66,0,0,1-2.57,4.69,7.56,7.56,0,0,0-1.05-.79,13.36,13.36,0,0,0,2-3l-1.43.83-.07-1.33,2.19-1.28a11.8,11.8,0,0,0,.32-1.43l-2.11,1.23-.07-1.33,6.19-3.62Zm-1.76,6.4a24.29,24.29,0,0,1,1.21,2.57l-1,1a23.88,23.88,0,0,0-1.06-2.59l.13,2.64a2,2,0,0,1-.18,1,2.06,2.06,0,0,1-.61.73c-.26.19-.79.53-1.6,1a9.26,9.26,0,0,0-.38-1.27L174,198l-1.13-.08c.5-1.29.93-2.55,1.28-3.79l1.13,0c-.31,1-.65,2.09-1,3.19a7.77,7.77,0,0,0,.9-.48,1,1,0,0,0,.49-1l-.18-3.6,1.31-.76.09,1.66Z"/><path d="M183.32,193.32c-.13-.49-.28-1-.45-1.55.42-.21.77-.4,1-.56a1.11,1.11,0,0,0,.37-.34.91.91,0,0,0,.14-.42c0-.16,0-.76,0-1.82s-.08-2.37-.15-3.94l-1,.57a20.43,20.43,0,0,1-1.39,9.21c-.27-.39-.56-.79-.89-1.2a17.4,17.4,0,0,0,1-7.24l-1.16.68-.08-1.54,1.19-.69c0-.68,0-1.32-.09-1.94l1.32-.77.07,1.95,2.3-1.34.18,4.76.08,2.79a3.48,3.48,0,0,1-.24,1.44,2.55,2.55,0,0,1-.64.93A15.63,15.63,0,0,1,183.32,193.32Zm3.28-1.92-.55-10.32,4.09-2.39.54,10.25-1.36.79,0-1-1.37.81,0,1ZM188.86,181l-1.37.81.33,6.22,1.37-.8Z"/><path d="M202.38,180.79l-1.71,1-3.62-3.92a4.34,4.34,0,0,1-.42-.52h0c0,.3.08.77.12,1.42l.27,5.16-1.58.92-.48-9.06,1.82-1.07,3.5,3.83c.23.26.37.42.42.49h0a11.71,11.71,0,0,1-.12-1.22l-.27-5.17,1.59-.93Z"/><path d="M209.51,175.88a5.91,5.91,0,0,1-.74,3.3,6.74,6.74,0,0,1-2.5,2.47,4.17,4.17,0,0,1-1.82.67l-.09-1.61a3,3,0,0,0,1.79-.44,3.59,3.59,0,0,0,1.34-1.34,3.28,3.28,0,0,0,.41-1.79l0-.54h0a4,4,0,0,1-1.7,2.14,1.52,1.52,0,0,1-1.74.12,2.48,2.48,0,0,1-.76-2,6.21,6.21,0,0,1,.56-3,4.48,4.48,0,0,1,1.79-2c.69-.41,1.22-.4,1.6,0h0l0-.77,1.63-1Zm-1.76-2a1.09,1.09,0,0,0-.4-.89.76.76,0,0,0-.87.05,2.21,2.21,0,0,0-.91,1.09,3.94,3.94,0,0,0-.27,1.73,1.55,1.55,0,0,0,.4,1.14.78.78,0,0,0,.92,0,2.26,2.26,0,0,0,.88-1,3.32,3.32,0,0,0,.28-1.5Z"/><path d="M210.53,167.2a1.53,1.53,0,0,1,.23-.86,1.8,1.8,0,0,1,.67-.67.77.77,0,0,1,.7-.13.56.56,0,0,1,.3.55,1.49,1.49,0,0,1-.23.86,1.78,1.78,0,0,1-.67.69.76.76,0,0,1-.69.11A.59.59,0,0,1,210.53,167.2Zm.58,8.49-.34-6.48,1.62-1,.34,6.47Z"/><path d="M219.62,170.71l-1.63.95-.19-3.61c-.05-1.05-.41-1.38-1.06-1a1.91,1.91,0,0,0-.75.87,2.6,2.6,0,0,0-.25,1.25l.19,3.69-1.63,1-.34-6.47,1.63-1,.06,1h0a4,4,0,0,1,1.74-2.24c1.24-.73,1.9-.2,2,1.58Z"/><path d="M226,160.29l-1.69,4.23,2,2.25-1.88,1.1-.93-1.3a2.09,2.09,0,0,1-.27-.44h0a6.77,6.77,0,0,1-.2.7l-.75,2.3-1.88,1.1,1.72-4.33-1.95-2.21,1.89-1.11L223,164a3.28,3.28,0,0,1,.26.46h0a6.8,6.8,0,0,1,.2-.74l.76-2.35Z"/><path d="M158.69,222.55l1.43-.83c.09,1.59.12,3,.1,4.18l2,1.34-1,1.8c-.39-.34-.78-.66-1.16-1a21.87,21.87,0,0,1-1.8,6.43,6.32,6.32,0,0,0-1.07-1,18.76,18.76,0,0,0,1.43-4.87A38.65,38.65,0,0,0,158.69,222.55Zm4-2.35,1.41-.82c.08,1.49.12,2.79.1,3.91.68,2.54,1.74,4.12,3.16,4.73-.12.18-.5.84-1.17,2-.88-.41-1.65-1.49-2.31-3.23a24.34,24.34,0,0,1-2.13,5.79,7.66,7.66,0,0,0-1.25-.45c.23-.44.62-1.3,1.16-2.57a13.42,13.42,0,0,0,1-3.8A36.86,36.86,0,0,0,162.71,220.2Z"/><path d="M177.81,217.52a6,6,0,0,1-3.05,6q-3.13,1.83-3.35-2.11l-.28-5.27,1.68-1,.27,5.28c.09,1.51.64,2,1.67,1.36a3,3,0,0,0,1.4-3.07l-.28-5.36,1.67-1Z"/><path d="M181.27,218.71l0,.78-1.64.95-.5-9.58,1.63-1L181,214h0a4.25,4.25,0,0,1,1.77-2.22c.71-.41,1.27-.44,1.7-.11a2.69,2.69,0,0,1,.73,2,6.27,6.27,0,0,1-.56,3,4.33,4.33,0,0,1-1.77,2.05c-.7.41-1.24.4-1.62,0Zm-.13-2a1.06,1.06,0,0,0,.38.87.76.76,0,0,0,.86-.05,2.22,2.22,0,0,0,.92-1.11,3.87,3.87,0,0,0,.26-1.75,1.55,1.55,0,0,0-.38-1.13c-.22-.19-.53-.18-.91.05a2.23,2.23,0,0,0-.88,1,2.82,2.82,0,0,0-.29,1.42Z"/><path d="M191.91,213.29l-1.63,1-.05-1h0a4,4,0,0,1-1.66,2.15c-1.3.76-2,.24-2.09-1.58l-.21-3.9,1.63-1,.2,3.73c0,1,.4,1.26,1.06.88a2,2,0,0,0,.76-.86,2.61,2.61,0,0,0,.24-1.25l-.2-3.7,1.63-1Z"/><path d="M198.81,209.25l-1.63.95-.19-3.61c-.05-1-.4-1.38-1.05-1a2.11,2.11,0,0,0-.76.87,2.6,2.6,0,0,0-.25,1.25l.2,3.7-1.64,1-.34-6.47,1.64-1,.05,1h0a4.05,4.05,0,0,1,1.74-2.24c1.24-.72,1.91-.2,2,1.58Z"/><path d="M203.6,206.37a4,4,0,0,1-1.11.89c-1.19.7-1.82.32-1.89-1.12l-.16-3.06-.93.54-.07-1.41.92-.54-.07-1.42,1.59-1.49.11,2,1.27-.74.07,1.41-1.27.74.14,2.73c0,.69.29.9.76.62a1.9,1.9,0,0,0,.56-.52Z"/><path d="M209.93,202.75l-1.62.95-.06-1h0a4,4,0,0,1-1.66,2.15c-1.3.76-2,.24-2.09-1.58l-.21-3.91,1.64-.95.19,3.73c.05,1,.41,1.26,1.06.87a1.86,1.86,0,0,0,.76-.85,2.5,2.5,0,0,0,.24-1.25l-.19-3.7,1.62-.95Z"/><path d="M217.62,188.09l-.18.39c.69.4,1.4.86,2.13,1.37l-1,1.77a13,13,0,0,0-1.73-1.46,26,26,0,0,1-1.69,3.49l3.85-2.26c0,.41,0,1.26,0,2.57a2.73,2.73,0,0,1-1.44,2.62l-.93.55c-.11-.71-.19-1.15-.23-1.34.19-.09.53-.27,1-.55a.69.69,0,0,0,.29-.64c0-.24,0-.59,0-1l-1.73,1,.19,3.58q0,.74.6.39l1.09-.63a1,1,0,0,0,.51-.87c0-.17,0-.5.05-1,.46-.14.94-.3,1.43-.49-.06.66-.11,1.2-.18,1.6a2.73,2.73,0,0,1-1.49,2l-1.53.89c-1.13.66-1.72.46-1.78-.61l-.26-4.94c-.09.15-.18.3-.28.45a10,10,0,0,0-.67-1.13,21.82,21.82,0,0,0,2.26-4.76Zm3.82,6.23-1.33.78-.38-7.07,1.34-.78Zm.36-8.61,1.35-.78.47,9a3,3,0,0,1-1.14,2.93c-.52.33-1,.63-1.5.91a9.87,9.87,0,0,0-.38-1.49c.28-.15.67-.37,1.16-.66a1.17,1.17,0,0,0,.5-1.17Z"/><path d="M225.08,195.53a11.43,11.43,0,0,0-.51-1.38,12.33,12.33,0,0,0,.8-1.58,5.6,5.6,0,0,1-1-1.72l1-1.14a6.7,6.7,0,0,0,.52,1,11.14,11.14,0,0,0,.27-1.85l-1.52.89-.08-1.52,1.07-2.63-1.38.81-.07-1.43,2.93-1.72.07,1.35-1.22,2.9,1.35-.8.08,1.46a16.72,16.72,0,0,1-.61,3.44q1,.47,3.21-.84l0-.74-2.27,1.33,0-1.07,2.26-1.32,0-.63L228,189.5l-.06-1.07,1.92-1.13,0-.62-1.78,1,0-1,1.78-1,0-.68-2.3,1.35-.07-1.19,2.31-1.35,0-.68-1.78,1-.06-1.14,1.78-1,0-.93,1.3-.76.05.94,2.57-1.5.09,1.82.62-.36.06,1.19-.61.36.09,1.7-2.57,1.5,0,.62,2.57-1.5.06,1.08-2.57,1.5,0,.63,2.91-1.7.06,1.06-2.92,1.71,0,.73,3.31-2c-.1.53-.18,1.09-.26,1.67l-4.22,2.47a7.34,7.34,0,0,1-2.57,1.07,2.8,2.8,0,0,1-1.3-.06A14.23,14.23,0,0,1,225.08,195.53Zm7.22-14-1.37.8,0,.68,1.38-.8Zm-1.24,3.36,1.38-.81,0-.68-1.37.81Z"/><path class="cls-13" d="M188.57,235.34l3.76-2.19c0-.68,0-1.31-.07-1.9l1.32-.78q.06,1,.09,1.89l3.7-2.17.41,7.65a3.17,3.17,0,0,1-.28,1.54,2.72,2.72,0,0,1-1,1.12,20.41,20.41,0,0,1-1.83,1.11q-.15-.6-.39-1.35c.46-.23.9-.46,1.32-.71a2.58,2.58,0,0,0,.49-.34.89.89,0,0,0,.22-.37,1.38,1.38,0,0,0,.06-.51l-.3-5.8-2.37,1.39c0,.64,0,1.22-.09,1.71.73.18,1.59.44,2.59.78l-1,1.78a20.85,20.85,0,0,0-2-1,13.77,13.77,0,0,1-1.82,3.39,4.52,4.52,0,0,0-1.1-.62,9,9,0,0,0,2.08-5.3L190,236.07l.43,8.11-1.38.8Z"/><path class="cls-13" d="M198.63,234.56a21.83,21.83,0,0,0,1-3.85l-1.12.65-.08-1.52,1.21-.7-.11-2.06,1.28-.75.11,2.06,1-.6.08,1.53-1,.59,0,.91c.44.14.9.3,1.38.49L201.6,233a4.63,4.63,0,0,0-.43-.24l.27,5.1-1.29.75-.25-4.82a28.51,28.51,0,0,1-.84,2.76C198.91,235.75,198.76,235.1,198.63,234.56Zm9.84-9.93-3.29,1.93c-.31.77-.64,1.58-1,2.43l1.27-.8a22,22,0,0,0,.86-2.19l1.22.08a30.57,30.57,0,0,1-4.87,8.8,6.88,6.88,0,0,0-1-.64,33.41,33.41,0,0,0,2.65-3.92c-.77.52-1.35.91-1.73,1.19l-.43-1a13.17,13.17,0,0,0,1.3-3l-1.39.81L202,227l2.31-1.35c-.15-.28-.31-.55-.47-.82l1.49-1.2c.2.31.41.66.62,1.06l2.43-1.42Zm-1,3,1.17.13a33.58,33.58,0,0,1-1.72,3.63,12.85,12.85,0,0,1,1.94.77l-1,1.88a10.69,10.69,0,0,0-1.94-1,30.16,30.16,0,0,1-2.9,3.86,10.56,10.56,0,0,0-1-.69A32.32,32.32,0,0,0,207.51,227.67Z"/><path class="cls-14" d="M37.3,202.75l3.47,2q-.12-.54-.24-1l1.6.5c.12.49.25,1,.36,1.5l3.3,1.87-.27,4.14-7.11-4q-.25,3.89-1.74,5.35c-.25-.55-.56-1.2-.93-1.94a7.48,7.48,0,0,0,1.3-4.31Zm1,11.24.33-5,6.72,3.83-.32,5L43.68,217l0-.59-4-2.27,0,.62Zm5.91-4.49.09-1.28L38.58,205l-.08,1.28Zm-.32,4-4-2.27-.1,1.52,4,2.27Z"/><path class="cls-14" d="M50.34,215l.89,3.56c.53-.7.87-2.34,1-4.92l-1-.59.1-1.54,1.06.6.15-2,1.35.77-.15,2,2.67,1.52L55.86,221a10.73,10.73,0,0,1-.2,1.61.72.72,0,0,1-.33.43.78.78,0,0,1-.58.06,10.18,10.18,0,0,1-1.83-.9c-.07-.66-.16-1.31-.25-2q.66.44,1.11.69a.66.66,0,0,0,.46.12.32.32,0,0,0,.21-.28c0-.16.09-.75.18-1.76s.2-2.27.3-3.78l-1.31-.75c-.15,1.72-.29,2.93-.43,3.63a6.79,6.79,0,0,1-.71,2,4,4,0,0,1-1.25,1.42c-.36-.57-.75-1.13-1.18-1.69a3.14,3.14,0,0,0,.59-.42L47.8,218a3.66,3.66,0,0,0-1-.3l-.54-1.78c.38-.13.89-1.1,1.55-2.92l-1.27-.73.09-1.49,4.71,2.67-.1,1.5-2-1.11c-.39.94-.8,1.83-1.22,2.69l1.68.87c-.2-.92-.39-1.78-.58-2.57Zm.75-3.24-3.91-2.22.09-1.5,3.92,2.22Z"/><path class="cls-14" d="M57.29,214.76l4.25,2.42c-.07-.46-.19-1-.33-1.72l1.58.53c.21.92.36,1.64.47,2.16l3.88,2.21-.1,1.58-1.52-.86A6.87,6.87,0,0,1,63,224.3a22.93,22.93,0,0,0,3.75,4.1,8,8,0,0,0-1.23,1.09,26.62,26.62,0,0,1-3.8-4.61,10.46,10.46,0,0,1-4.17.15c-.32-.89-.63-1.65-.91-2.28a10.27,10.27,0,0,0,4,.16,19.41,19.41,0,0,1-1.79-5.64l-1.64-.94Zm6.5,5.33-3.39-1.93a14.77,14.77,0,0,0,1.48,4.29A4.4,4.4,0,0,0,63.79,220.09Z"/><path class="cls-14" d="M69.63,219.93,71,221.2c-.3.69-.6,1.34-.91,1.93l-.56,8.68L68.17,231l.34-5.32a10.61,10.61,0,0,1-1,1.1c-.06-.92-.14-1.72-.21-2.39A20.51,20.51,0,0,0,69.63,219.93Zm.69,6.88,3.25,1.85.14-2.23-1.4-.8a12.42,12.42,0,0,1-.75,1.62q-.54-.67-1.23-1.41a18.9,18.9,0,0,0,1.46-3.9l1.35,1.16c-.12.44-.24.84-.37,1.23l1,.59.17-2.53,1.47.84-.16,2.53L77.42,227l-.1,1.51-2.13-1.21-.14,2.23,2.4,1.37-.1,1.51L75,231l-.25,3.75-1.47-.84.24-3.75-3.25-1.85Z"/><path class="cls-14" d="M80,234l1,1.63a10.54,10.54,0,0,1-2.67.84c-.28-.64-.56-1.24-.84-1.78A6.8,6.8,0,0,0,80,234Zm-1.53-8.29q5,2.86,9.09,4.69l.12,1.41c-1.38-.63-2.81-1.32-4.31-2.08a19.42,19.42,0,0,1-2.34.13l3.38,1.74c.53,0,1.07-.1,1.62-.16L87,233.1a32.09,32.09,0,0,1-6.28-.24q2.2,1.13,4.44,2.22-.36-.68-.69-1.23l1-.34q.73,1.23,2.31,4.16l-1,.47c-.22-.45-.44-.87-.64-1.27l-2.47-1.29-.18,2.75c0,.39-.15.64-.36.73a1.17,1.17,0,0,1-.94-.19c-.41-.21-1-.52-1.65-.91a13.88,13.88,0,0,0-.16-1.74c.33.22.69.44,1.06.66a1.11,1.11,0,0,0,.56.2c.09,0,.14-.13.16-.32l.12-1.89c-1.53-.78-2.7-1.34-3.52-1.69l-.26-1.65a26.12,26.12,0,0,0,3.85.19c-1.35-.67-2.4-1.16-3.14-1.45l-.29-1.64a10.1,10.1,0,0,0,2.4,0l-2.6-1.39C78.62,226.79,78.57,226.28,78.5,225.73Zm6.71,11.11q1.07,1.53,2.39,3.61l-1,.59q-1-1.69-2.31-3.66Z"/><path class="cls-14" d="M97,243.67c.4.47.79.89,1.19,1.28a3.87,3.87,0,0,1-.63,2c-.25.2-.63.17-1.12-.12l-.6-.34a2.14,2.14,0,0,1-1.09-2.15l.25-3.73-.83-.4a6.38,6.38,0,0,1-.93,3.35,2.12,2.12,0,0,1-1.63.82c-.26-.53-.57-1.13-.93-1.79-.91-.42-1.78-.78-2.59-1.1V239.9c.68.32,1.84.84,3.5,1.55,0,.28-.06.59-.09.92q1.17-.21,1.38-2.73a9.16,9.16,0,0,0-.92-.36l-.28-1.64a3.43,3.43,0,0,0,1.9-1.48l-1.72-1,.09-1.34,2.26,1.29c-.1-.38-.2-.78-.32-1.2l1.54.54c.15.53.3,1.07.44,1.6l2.56,1.46-.09,1.33L95.05,237a10,10,0,0,1-1.69,1.47c.86.45,1.8.94,2.83,1.45-.2-.53-.42-1.08-.65-1.64l1.06-.09c.65,1.5,1.2,2.87,1.66,4.11l-1.16.14c-.1-.3-.21-.61-.32-.92l-.49-.26-.22,3.37c0,.31.05.51.23.61l.09.05c.16.09.27.06.34-.11A9.7,9.7,0,0,0,97,243.67Zm-7-5.11,1.52.66a8.86,8.86,0,0,0-.16,1.3,23.21,23.21,0,0,0-2.8-1.26l-.23-1.48a6.93,6.93,0,0,0,1.56-1.3q-.8-.39-1.32-.6l-.28-1.53a9.7,9.7,0,0,0,2-2.77l1.3,1.37a15,15,0,0,1-1.81,2.1c.28.16.61.33,1,.51l.52-.62,1,1.26C91.52,237.07,90.76,237.86,90,238.56Z"/></g></svg>