<svg xmlns="http://www.w3.org/2000/svg" viewBox="0 0 600 279"><defs><style>.cls-1{fill:#fff;}.cls-2,.cls-6{fill:#3c3c41;}.cls-2{opacity:0.1;}.cls-2,.cls-9{isolation:isolate;}.cls-3{fill:#3e3e3e;}.cls-4{fill:#1e1e1e;}.cls-5{fill:#b8d432;}.cls-6,.cls-7{fill-opacity:0.2;}.cls-10,.cls-6,.cls-7,.cls-8{stroke:#fff;stroke-width:0.5px;}.cls-7{fill:#008575;}.cls-8{fill:#0072c6;fill-opacity:0.25;}.cls-9{fill:#50e6ff;opacity:0.15;}.cls-10{fill:none;}</style></defs><title>OJ104601283</title><g id="source"><g id="source-2" data-name="source"><g id="Shapes"><rect id="Rectangle-path" class="cls-1" y="0.57" width="599.2" height="278.01"/><g id="Group"><rect class="cls-1" x="12.94" y="27.27" width="263.09" height="251.31"/><rect class="cls-2" x="12.94" y="27.27" width="263.09" height="251.31"/></g><path id="Shape" class="cls-3" d="M23.94,39.37a2,2,0,0,1-2,2H2a2,2,0,0,1-1.45-.59A2,2,0,0,1,0,39.37V2.61A2,2,0,0,1,.59,1.16,2,2,0,0,1,2,.57H21.9a2,2,0,0,1,2,2Z"/><path class="cls-4" d="M3.42,22.56A2.58,2.58,0,0,1,6.05,20H18a2.61,2.61,0,0,1,1.86.75,2.68,2.68,0,0,1,0,3.72,2.61,2.61,0,0,1-1.86.75H6.05A2.63,2.63,0,0,1,3.42,22.56Z"/><circle id="Oval" class="cls-5" cx="6.2" cy="22.62" r="1.71"/><path class="cls-4" d="M3.42,14.86A2.62,2.62,0,0,1,4.18,13a2.53,2.53,0,0,1,1.87-.75H18a2.53,2.53,0,0,1,1.86.75,2.67,2.67,0,0,1,0,3.71,2.61,2.61,0,0,1-1.86.75H6.05A2.62,2.62,0,0,1,3.42,14.86Z"/><circle class="cls-5" cx="6.2" cy="14.86" r="1.71"/><path class="cls-4" d="M3.42,7.18a2.63,2.63,0,0,1,.77-1.85,2.57,2.57,0,0,1,1.86-.75H18a2.57,2.57,0,0,1,1.85.75A2.62,2.62,0,0,1,18,9.81H6.05A2.7,2.7,0,0,1,3.42,7.18Z"/><circle class="cls-5" cx="6.2" cy="7.18" r="1.71"/><rect class="cls-6" x="28.65" y="47.69" width="76.57" height="39.27"/><rect class="cls-6" x="105.61" y="47.69" width="76.57" height="39.27"/><rect class="cls-6" x="181.79" y="47.69" width="76.57" height="39.27"/><rect class="cls-6" x="28.65" y="86.96" width="76.57" height="39.27"/><rect class="cls-6" x="105.61" y="86.96" width="76.57" height="39.27"/><rect class="cls-6" x="181.79" y="86.96" width="76.57" height="39.27"/><rect class="cls-6" x="28.65" y="126.23" width="76.57" height="39.27"/><rect class="cls-6" x="105.61" y="126.23" width="76.57" height="39.27"/><rect class="cls-6" x="181.79" y="126.23" width="76.57" height="39.27"/><rect class="cls-7" x="28.65" y="184.34" width="231.68" height="39.27"/><rect class="cls-8" x="28.65" y="223.61" width="231.68" height="39.27"/><rect class="cls-1" x="336.11" y="27.27" width="263.09" height="251.31"/><rect class="cls-2" x="336.11" y="27.27" width="263.09" height="251.31"/><path class="cls-3" d="M347.12,39.37a2,2,0,0,1-.59,1.45,2,2,0,0,1-1.45.59H325.13a2,2,0,0,1-1.45-.6,2,2,0,0,1-.59-1.44V2.61a2,2,0,0,1,.59-1.45,2.08,2.08,0,0,1,1.45-.59H345a2.08,2.08,0,0,1,1.52.55,2,2,0,0,1,.62,1.49Z"/><path class="cls-4" d="M326.59,22.56A2.59,2.59,0,0,1,329.2,20h11.92a2.57,2.57,0,0,1,1.86.75,2.66,2.66,0,0,1,0,3.72,2.57,2.57,0,0,1-1.86.75H329.2A2.62,2.62,0,0,1,326.59,22.56Z"/><circle class="cls-5" cx="329.37" cy="22.62" r="1.71"/><path class="cls-4" d="M326.59,14.86a2.58,2.58,0,0,1,.76-1.85,2.55,2.55,0,0,1,1.85-.75h11.92A2.5,2.5,0,0,1,343,13a2.64,2.64,0,0,1,0,3.71,2.57,2.57,0,0,1-1.86.75H329.2A2.62,2.62,0,0,1,326.59,14.86Z"/><circle class="cls-5" cx="329.37" cy="14.86" r="1.71"/><path class="cls-4" d="M326.59,7.18a2.58,2.58,0,0,1,.76-1.85,2.55,2.55,0,0,1,1.85-.75h11.92A2.62,2.62,0,0,1,343,9.05a2.62,2.62,0,0,1-1.86.76H329.2A2.7,2.7,0,0,1,326.59,7.18Z"/><circle class="cls-5" cx="329.37" cy="7.18" r="1.71"/><rect class="cls-6" x="351.82" y="47.69" width="76.57" height="39.27"/><rect class="cls-6" x="428.78" y="47.69" width="76.57" height="39.27"/><rect class="cls-6" x="504.96" y="47.69" width="76.57" height="39.27"/><rect class="cls-6" x="351.82" y="86.96" width="76.57" height="39.27"/><rect class="cls-6" x="428.78" y="86.96" width="76.57" height="39.27"/><rect class="cls-6" x="504.96" y="86.96" width="76.57" height="39.27"/><rect class="cls-1" x="351.82" y="184.34" width="231.68" height="39.27"/><rect class="cls-9" x="351.82" y="184.34" width="231.68" height="39.27"/><rect class="cls-10" x="351.82" y="184.34" width="231.68" height="39.27"/><rect class="cls-8" x="351.82" y="223.61" width="231.68" height="39.27"/></g><g id="source_text" data-name="source text"><path class="cls-4" d="M31.52,18.92V16a5.48,5.48,0,0,0,1.75,1,5,5,0,0,0,1.88.34,3.63,3.63,0,0,0,1-.11,2.4,2.4,0,0,0,.69-.26,1.47,1.47,0,0,0,.43-.43A1.08,1.08,0,0,0,37.4,16a1.2,1.2,0,0,0-.22-.69,2.58,2.58,0,0,0-.61-.58,5.41,5.41,0,0,0-.92-.49c-.34-.17-.72-.33-1.13-.5a5.77,5.77,0,0,1-2.29-1.57A3.35,3.35,0,0,1,31.41,10a3.44,3.44,0,0,1,.43-1.75A3.36,3.36,0,0,1,33,6.93a5.7,5.7,0,0,1,1.67-.7,7.76,7.76,0,0,1,2-.22,10.06,10.06,0,0,1,1.82.12,7,7,0,0,1,1.48.38V9.26a4.53,4.53,0,0,0-.66-.41l-.8-.28a5.4,5.4,0,0,0-.88-.15h-.77a4.14,4.14,0,0,0-.93.1,2.25,2.25,0,0,0-.69.27,1.32,1.32,0,0,0-.46.42,1.1,1.1,0,0,0-.14.53,1,1,0,0,0,.17.6,2.32,2.32,0,0,0,.49.5,4.79,4.79,0,0,0,.79.46l1,.47a10.57,10.57,0,0,1,1.43.71,4.63,4.63,0,0,1,1.09.83,3.62,3.62,0,0,1,.69,1.08,3.92,3.92,0,0,1,.23,1.4,3.62,3.62,0,0,1-.42,1.85A3.29,3.29,0,0,1,39,18.85a5,5,0,0,1-1.68.68,10.46,10.46,0,0,1-2,.2,10.9,10.9,0,0,1-2.06-.31A6.65,6.65,0,0,1,31.52,18.92Z"/><path class="cls-4" d="M50.87,15.54H44.73c.1,1.37,1,2,2.58,2A5.12,5.12,0,0,0,50,16.86V19a7.08,7.08,0,0,1-3.39.7,4.42,4.42,0,0,1-4.81-4.8,5,5,0,0,1,1.37-3.71,4.48,4.48,0,0,1,3.34-1.38A4.16,4.16,0,0,1,49.7,11a4.77,4.77,0,0,1,1.13,3.33Zm-2.7-1.79c0-1.35-.53-2-1.57-2a1.62,1.62,0,0,0-1.21.58,2.68,2.68,0,0,0-.63,1.45Z"/><path class="cls-4" d="M58.76,12.62a2.61,2.61,0,0,0-1.23-.28A1.77,1.77,0,0,0,56,13a3.12,3.12,0,0,0-.53,1.88v4.51H52.6V10h2.91v1.75a2.52,2.52,0,0,1,2.61-1.92,2.25,2.25,0,0,1,.72.11Z"/><path class="cls-4" d="M69.83,10l-3.5,9.43H63L59.69,10h3.14l1.57,5.82a9.34,9.34,0,0,1,.31,1.66,9.37,9.37,0,0,1,.35-1.57L66.8,10Z"/><path class="cls-4" d="M79.37,15.54H73.21c.09,1.37,1,2,2.59,2a5.12,5.12,0,0,0,2.73-.72V19a7.08,7.08,0,0,1-3.39.7,4.71,4.71,0,0,1-3.55-1.27,4.69,4.69,0,0,1-1.25-3.53,5,5,0,0,1,1.35-3.71,4.5,4.5,0,0,1,3.36-1.38A4.15,4.15,0,0,1,78.19,11a4.73,4.73,0,0,1,1.13,3.33Zm-2.71-1.79c0-1.35-.54-2-1.57-2a1.57,1.57,0,0,0-1.22.58,2.8,2.8,0,0,0-.61,1.45Z"/><path class="cls-4" d="M87.24,12.62A2.39,2.39,0,0,0,86,12.34a1.74,1.74,0,0,0-1.48.69A3,3,0,0,0,84,14.91v4.51H81.09V10H84v1.75a2.52,2.52,0,0,1,2.48-1.92,2.17,2.17,0,0,1,.72.11Z"/><path class="cls-4" d="M56.65,73.61H55L53.56,69.9H47.94l-1.32,3.71H44.91L50,60.41h1.57ZM53,68.52,51,62.9a6.92,6.92,0,0,1-.19-.88,5.58,5.58,0,0,1-.2.88L48.5,68.52Z"/><path class="cls-4" d="M59.94,72.24v5.7H58.37V64.18h1.57v1.57a3.58,3.58,0,0,1,3.25-1.87A3.44,3.44,0,0,1,66,65.16a5.1,5.1,0,0,1,1,3.37A5.83,5.83,0,0,1,66,72.41a3.86,3.86,0,0,1-3.14,1.42A3.14,3.14,0,0,1,59.94,72.24Zm0-3.8v1.32a2.71,2.71,0,0,0,2.85,2.79,2.62,2.62,0,0,0,2-1,4.65,4.65,0,0,0,.79-2.9,3.76,3.76,0,0,0-.74-2.47,2.36,2.36,0,0,0-2-.89,2.64,2.64,0,0,0-2.12.91,3.36,3.36,0,0,0-.82,2.29Z"/><path class="cls-4" d="M71,72.24v5.7H69.44V64.18H71v1.57a3.62,3.62,0,0,1,3.27-1.87,3.47,3.47,0,0,1,2.84,1.28,5.22,5.22,0,0,1,1,3.37A5.86,5.86,0,0,1,77,72.41a3.82,3.82,0,0,1-3.14,1.42A3.13,3.13,0,0,1,71,72.24Zm0-3.8v1.32a2.8,2.8,0,0,0,.75,2,2.73,2.73,0,0,0,4.09-.24,4.67,4.67,0,0,0,.77-2.9,3.82,3.82,0,0,0-.72-2.47,2.42,2.42,0,0,0-2-.89,2.64,2.64,0,0,0-2.12.91A3.37,3.37,0,0,0,71,68.44Z"/><path class="cls-4" d="M85.68,73.61H84.11V62.2a3.89,3.89,0,0,1-.5.41l-.76.44c-.28.14-.58.29-.89.41a4.79,4.79,0,0,1-.9.31V62.2a7,7,0,0,0,1.06-.36,9,9,0,0,0,1.08-.53,11,11,0,0,0,1-.6,7.25,7.25,0,0,0,.83-.63h.57Z"/><path class="cls-4" d="M133.23,73.61h-1.72L130.1,69.9h-5.59l-1.32,3.71h-1.71l5-13.2h1.57Zm-3.63-5.09-2.08-5.62a5.5,5.5,0,0,1-.18-.88,7,7,0,0,1-.21.88L125,68.52Z"/><path class="cls-4" d="M136.51,72.24v5.7h-1.57V64.18h1.57v1.57A3.59,3.59,0,0,1,139.79,64a3.43,3.43,0,0,1,2.84,1.28,5.1,5.1,0,0,1,1,3.37,5.82,5.82,0,0,1-1.14,3.8,3.86,3.86,0,0,1-3.14,1.42A3.16,3.16,0,0,1,136.51,72.24Zm0-3.8v1.32a2.71,2.71,0,0,0,.77,2,2.69,2.69,0,0,0,4.08-.24,4.72,4.72,0,0,0,.79-2.9,3.86,3.86,0,0,0-.79-2.47,2.33,2.33,0,0,0-2-.89,2.64,2.64,0,0,0-2.12.91,3.36,3.36,0,0,0-.82,2.29Z"/><path class="cls-4" d="M147.64,72.24v5.7h-1.57V64.18h1.57v1.57A3.62,3.62,0,0,1,150.79,64a3.44,3.44,0,0,1,2.84,1.28,5.22,5.22,0,0,1,1,3.37,5.87,5.87,0,0,1-1.16,3.8,3.82,3.82,0,0,1-3.14,1.42A3.17,3.17,0,0,1,147.64,72.24Zm0-3.8v1.32a2.81,2.81,0,0,0,.76,2,2.59,2.59,0,0,0,4-.24,4.81,4.81,0,0,0,.77-2.9,3.83,3.83,0,0,0-.73-2.47,2.39,2.39,0,0,0-2-.89,2.64,2.64,0,0,0-2.12.91,3.35,3.35,0,0,0-.77,2.29Z"/><path class="cls-4" d="M166.49,63.87a2.51,2.51,0,0,0-.19-1,2.08,2.08,0,0,0-.51-.76,2.12,2.12,0,0,0-.77-.44,2.64,2.64,0,0,0-1-.15,3.2,3.2,0,0,0-.87.12,4.05,4.05,0,0,0-.81.33,4.83,4.83,0,0,0-.77.5,5.55,5.55,0,0,0-.71.66V61.51a4.14,4.14,0,0,1,1.43-.94,4.83,4.83,0,0,1,1.92-.33,4.68,4.68,0,0,1,1.57.24,3.51,3.51,0,0,1,1.19.67,3.17,3.17,0,0,1,.79,1.12,3.66,3.66,0,0,1,.29,1.57,4.79,4.79,0,0,1-.18,1.41,4.47,4.47,0,0,1-.54,1.2,6.68,6.68,0,0,1-.91,1.08,13,13,0,0,1-1.3,1l-1.57,1.13a7.32,7.32,0,0,0-1,.88,2.45,2.45,0,0,0-.49.82,2.72,2.72,0,0,0-.14.94h6.57V73.7h-8.14V73a5.78,5.78,0,0,1,.17-1.49,3.83,3.83,0,0,1,.61-1.21,5.87,5.87,0,0,1,1.12-1.16A21.05,21.05,0,0,1,164,67.87a10.24,10.24,0,0,0,1.19-1,4.34,4.34,0,0,0,.77-.94,3,3,0,0,0,.43-1A4.13,4.13,0,0,0,166.49,63.87Z"/><path class="cls-4" d="M209.8,73.61h-1.72l-1.41-3.71h-5.62l-1.32,3.71H198l5-13.2h1.57Zm-3.63-5.09-2.08-5.62a6.87,6.87,0,0,1-.18-.88,7,7,0,0,1-.21.88l-2.06,5.62Z"/><path class="cls-4" d="M213.08,72.24v5.7h-1.57V64.18h1.57v1.57a3.58,3.58,0,0,1,3.25-1.87,3.43,3.43,0,0,1,2.84,1.28,5.1,5.1,0,0,1,1,3.37,5.84,5.84,0,0,1-1.14,3.81,3.88,3.88,0,0,1-3.14,1.41A3.15,3.15,0,0,1,213.08,72.24Zm0-3.8v1.32a2.71,2.71,0,0,0,.77,2,2.7,2.7,0,0,0,4.07-.24,4.71,4.71,0,0,0,.78-2.9,3.76,3.76,0,0,0-.74-2.47,2.33,2.33,0,0,0-2-.89,2.64,2.64,0,0,0-2.12.91,3.39,3.39,0,0,0-.85,2.29Z"/><path class="cls-4" d="M224.15,72.24v5.7h-1.57V64.18h1.57v1.57a3.62,3.62,0,0,1,3.27-1.87,3.47,3.47,0,0,1,2.84,1.28,5.16,5.16,0,0,1,1,3.37,5.86,5.86,0,0,1-1.16,3.81A3.81,3.81,0,0,1,227,73.75,3.16,3.16,0,0,1,224.15,72.24Zm0-3.8v1.32a2.77,2.77,0,0,0,.76,2A2.72,2.72,0,0,0,229,71.5a4.67,4.67,0,0,0,.77-2.9,3.82,3.82,0,0,0-.72-2.47,2.42,2.42,0,0,0-2-.89,2.65,2.65,0,0,0-2.12.91,3.37,3.37,0,0,0-.83,2.29Z"/><path class="cls-4" d="M241.68,69.87a3.86,3.86,0,0,1-.34,1.57,3.49,3.49,0,0,1-1,1.24,4.25,4.25,0,0,1-1.46.8,6.43,6.43,0,0,1-4.9-.42V71.49a5,5,0,0,0,3.14,1.05,3.74,3.74,0,0,0,1.24-.19,2.67,2.67,0,0,0,1-.5,2.33,2.33,0,0,0,.63-.8,2.53,2.53,0,0,0,.2-1.06c0-1.72-1.22-2.59-3.67-2.59h-1.1V66.13h1c2.18,0,3.26-.82,3.26-2.43s-.83-2.25-2.48-2.25a4.24,4.24,0,0,0-2.62.94V60.93a5.72,5.72,0,0,1,3-.75,4.72,4.72,0,0,1,1.49.22,3.61,3.61,0,0,1,1.15.64,3,3,0,0,1,.75,1,2.91,2.91,0,0,1,.25,1.27,3.13,3.13,0,0,1-2.62,3.34,4.37,4.37,0,0,1,1.24.33,3.47,3.47,0,0,1,1,.65,3.1,3.1,0,0,1,.64,1A2.88,2.88,0,0,1,241.68,69.87Z"/><polygon class="cls-4" points="59.26 112.87 52.41 112.87 52.41 99.68 53.98 99.68 53.98 111.48 59.29 111.48 59.26 112.87"/><path class="cls-4" d="M61.85,101.09a.9.9,0,0,1-.69-.28.94.94,0,0,1-.28-.69,1,1,0,0,1,.28-.71,1,1,0,0,1,.69-.28,1,1,0,0,1,.71.29,1,1,0,0,1,.28.7A1,1,0,0,1,61.85,101.09Zm.74,11.82H61v-9.43h1.57Z"/><path class="cls-4" d="M67.19,111.51v1.36H65.62V98.93h1.57v6.17a3.58,3.58,0,0,1,3.26-1.87,3.46,3.46,0,0,1,2.84,1.27,5.14,5.14,0,0,1,1,3.38,5.83,5.83,0,0,1-1.16,3.8A3.81,3.81,0,0,1,70,113.09,3.14,3.14,0,0,1,67.19,111.51Zm0-3.8V109a2.81,2.81,0,0,0,.76,2,2.72,2.72,0,0,0,4.08-.24,4.69,4.69,0,0,0,.77-2.91,3.74,3.74,0,0,0-.72-2.46,2.42,2.42,0,0,0-2-.9,2.7,2.7,0,0,0-2.11.91,3.41,3.41,0,0,0-.83,2.3Z"/><path class="cls-4" d="M76.16,112.53V111a4.52,4.52,0,0,0,2.72.91q2,0,2-1.32a1.1,1.1,0,0,0-.17-.64,1.55,1.55,0,0,0-.46-.46,3.48,3.48,0,0,0-.68-.38l-.84-.33a8.41,8.41,0,0,1-1.1-.5,3.65,3.65,0,0,1-.79-.56,2.21,2.21,0,0,1-.48-.73,2.4,2.4,0,0,1-.16-1,2.16,2.16,0,0,1,.3-1.16,2.66,2.66,0,0,1,.81-.86,3.74,3.74,0,0,1,1.15-.52,5.55,5.55,0,0,1,1.35-.17,5.26,5.26,0,0,1,2.18.42v1.57a4.19,4.19,0,0,0-2.38-.67,2.85,2.85,0,0,0-.77.09,1.93,1.93,0,0,0-.58.27,1.18,1.18,0,0,0-.38.42,1,1,0,0,0-.14.54,1.19,1.19,0,0,0,.14.61,1.3,1.3,0,0,0,.39.45,3.25,3.25,0,0,0,.63.35l.83.35a12.17,12.17,0,0,1,1.12.48,4.86,4.86,0,0,1,.85.57,2.15,2.15,0,0,1,.73,1.71,2.36,2.36,0,0,1-.31,1.22,2.5,2.5,0,0,1-.83.85,3.67,3.67,0,0,1-1.18.52,6.1,6.1,0,0,1-1.41.16A5.41,5.41,0,0,1,76.16,112.53Z"/><polygon class="cls-4" points="135.83 112.87 128.98 112.87 128.98 99.68 130.56 99.68 130.56 111.48 135.86 111.48 135.83 112.87"/><path class="cls-4" d="M138.42,101.09a.9.9,0,0,1-.69-.28.94.94,0,0,1-.28-.69,1,1,0,0,1,.28-.71,1,1,0,0,1,.69-.28,1,1,0,0,1,.71.29.92.92,0,0,1,.28.7A1,1,0,0,1,138.42,101.09Zm.74,11.82h-1.57v-9.43h1.57Z"/><path class="cls-4" d="M143.76,111.51v1.36h-1.57V98.93h1.57v6.17a3.59,3.59,0,0,1,3.26-1.87,3.46,3.46,0,0,1,2.84,1.27,5.2,5.2,0,0,1,1,3.38,5.9,5.9,0,0,1-1.17,3.8,3.81,3.81,0,0,1-3.14,1.41A3.14,3.14,0,0,1,143.76,111.51Zm0-3.8V109a2.84,2.84,0,0,0,.74,2,2.49,2.49,0,0,0,1.93.81,2.53,2.53,0,0,0,2.16-1,4.82,4.82,0,0,0,.77-2.91,3.8,3.8,0,0,0-.73-2.46,2.4,2.4,0,0,0-2-.9,2.68,2.68,0,0,0-2.1.91,3.4,3.4,0,0,0-.82,2.3Z"/><path class="cls-4" d="M152.73,112.53V111a4.52,4.52,0,0,0,2.72.91q2,0,2-1.32a1.1,1.1,0,0,0-.17-.64,1.55,1.55,0,0,0-.46-.46,3.72,3.72,0,0,0-.67-.38l-.85-.33a8.41,8.41,0,0,1-1.1-.5,3.65,3.65,0,0,1-.79-.56,2.21,2.21,0,0,1-.48-.73,2.4,2.4,0,0,1-.16-1,2.16,2.16,0,0,1,.3-1.16,2.56,2.56,0,0,1,.88-.91,4.05,4.05,0,0,1,1.14-.52,5.61,5.61,0,0,1,1.35-.17,5.48,5.48,0,0,1,2.19.42v1.58a4.21,4.21,0,0,0-2.39-.68,3.31,3.31,0,0,0-.77.09,2,2,0,0,0-.58.27,1.21,1.21,0,0,0-.38.43,1.08,1.08,0,0,0-.14.53,1.19,1.19,0,0,0,.14.61,1.45,1.45,0,0,0,.39.46,3.83,3.83,0,0,0,.63.34l.84.35a9.13,9.13,0,0,1,1.11.49,4.31,4.31,0,0,1,.85.56,2.19,2.19,0,0,1,.74,1.71,2.31,2.31,0,0,1-.32,1.23,2.59,2.59,0,0,1-.83.85,3.88,3.88,0,0,1-1.18.51,5.6,5.6,0,0,1-1.41.16A5.28,5.28,0,0,1,152.73,112.53Z"/><polygon class="cls-4" points="212.4 112.87 205.56 112.87 205.56 99.68 207.13 99.68 207.13 111.48 212.44 111.48 212.4 112.87"/><path class="cls-4" d="M215,101.09a1,1,0,0,1-1-1,1,1,0,0,1,.28-.71,1,1,0,0,1,.69-.28,1,1,0,0,1,.71.29.92.92,0,0,1,.28.7A1,1,0,0,1,215,101.09Zm.74,11.82h-1.57v-9.43h1.57Z"/><path class="cls-4" d="M220.34,111.51v1.36h-1.58V98.93h1.58v6.17a3.57,3.57,0,0,1,3.25-1.87,3.46,3.46,0,0,1,2.84,1.27,5.2,5.2,0,0,1,1,3.38,5.9,5.9,0,0,1-1.17,3.8,3.81,3.81,0,0,1-3.14,1.41A3.12,3.12,0,0,1,220.34,111.51Zm0-3.8V109a2.8,2.8,0,0,0,.75,2,2.72,2.72,0,0,0,4.08-.24,4.69,4.69,0,0,0,.77-2.91,3.74,3.74,0,0,0-.72-2.46,2.42,2.42,0,0,0-2-.9,2.66,2.66,0,0,0-2.1.91,3.42,3.42,0,0,0-.84,2.3Z"/><path class="cls-4" d="M229.32,112.53V111a4.5,4.5,0,0,0,2.72.91q2,0,2-1.32a1,1,0,0,0-.18-.64,1.52,1.52,0,0,0-.45-.46,3.48,3.48,0,0,0-.68-.38l-.85-.33a9.81,9.81,0,0,1-1.1-.5,3.59,3.59,0,0,1-.78-.56,2.23,2.23,0,0,1-.49-.73,2.58,2.58,0,0,1-.15-1,2.16,2.16,0,0,1,.29-1.16,2.81,2.81,0,0,1,.82-.86,3.74,3.74,0,0,1,1.15-.52,5.55,5.55,0,0,1,1.35-.17,5.26,5.26,0,0,1,2.18.42v1.57a4.2,4.2,0,0,0-2.39-.67,2.89,2.89,0,0,0-.77.09,2.18,2.18,0,0,0-.58.27,1.15,1.15,0,0,0-.37.42.94.94,0,0,0-.13.43,1.19,1.19,0,0,0,.14.61,1.41,1.41,0,0,0,.39.45,3.25,3.25,0,0,0,.63.35l.83.35a10.2,10.2,0,0,1,1.12.48,4.86,4.86,0,0,1,.85.57,2.19,2.19,0,0,1,.74,1.71,2.37,2.37,0,0,1-.32,1.22,2.41,2.41,0,0,1-.83.85,3.67,3.67,0,0,1-1.18.52,6.1,6.1,0,0,1-1.41.16A5.26,5.26,0,0,1,229.32,112.53Z"/><path class="cls-4" d="M49.48,139l-4.89,13.19H42.88L38.17,139h1.71l3.66,10.46a7.8,7.8,0,0,1,.27,1.16,7,7,0,0,1,.29-1.18L47.84,139Z"/><path class="cls-4" d="M64.82,152.14H63.25v-8.86a19,19,0,0,1,.13-2.56A7.81,7.81,0,0,1,63,142l-4.5,10.15h-.76l-4.51-10.07a10.43,10.43,0,0,1-.39-1.35v11.42H51.36V139h2l4.06,9.26a14.62,14.62,0,0,1,.66,1.58,16.38,16.38,0,0,1,.62-1.58L62.83,139h1.93Z"/><path class="cls-4" d="M78.77,152.36a5.77,5.77,0,0,1-4.49-1.85,6.84,6.84,0,0,1-1.68-4.81,7.28,7.28,0,0,1,1.71-5.09A6,6,0,0,1,79,138.73a5.64,5.64,0,0,1,4.41,1.84,6.87,6.87,0,0,1,1.67,4.8,7.33,7.33,0,0,1-1.71,5.12A5.92,5.92,0,0,1,78.77,152.36Zm.11-12.23a4.29,4.29,0,0,0-3.38,1.57,6.71,6.71,0,0,0,0,7.85,4.13,4.13,0,0,0,3.3,1.57,4.3,4.3,0,0,0,3.43-1.43,5.67,5.67,0,0,0,1.25-4,6.07,6.07,0,0,0-1.21-4A4.17,4.17,0,0,0,78.88,140.13Z"/><path class="cls-4" d="M87.05,151.61v-1.82a4.26,4.26,0,0,0,.75.5,5.26,5.26,0,0,0,.93.36,4.48,4.48,0,0,0,1,.23,4.61,4.61,0,0,0,.91.1,3.59,3.59,0,0,0,2.07-.53,1.84,1.84,0,0,0,.71-1.58,1.86,1.86,0,0,0-.24-.92,2.32,2.32,0,0,0-.64-.72,6.29,6.29,0,0,0-1-.63L90.3,146c-.46-.24-.9-.47-1.29-.71a5.34,5.34,0,0,1-1-.8,3.34,3.34,0,0,1-.7-1A3.19,3.19,0,0,1,87,142.2a3.06,3.06,0,0,1,.4-1.57,3.32,3.32,0,0,1,1-1.1,4.67,4.67,0,0,1,1.46-.65,7.15,7.15,0,0,1,1.73-.09,6.42,6.42,0,0,1,2.84.47V141a5.12,5.12,0,0,0-3-.8,4.2,4.2,0,0,0-1,.11,2.49,2.49,0,0,0-.91.33,2.44,2.44,0,0,0-.65.63,1.71,1.71,0,0,0-.25.91,1.94,1.94,0,0,0,.19.88,2.13,2.13,0,0,0,.56.67,5.31,5.31,0,0,0,.9.58c.36.19.75.41,1.22.63a14.14,14.14,0,0,1,1.34.74,6.12,6.12,0,0,1,1.12.85,3.54,3.54,0,0,1,.75,1,2.93,2.93,0,0,1,.28,1.3,3.26,3.26,0,0,1-.38,1.65,2.94,2.94,0,0,1-1,1.1,4.45,4.45,0,0,1-1.57.62,8.21,8.21,0,0,1-1.78.18H89.5a7.5,7.5,0,0,1-.93-.15,7.17,7.17,0,0,1-.91-.24A3.3,3.3,0,0,1,87.05,151.61Z"/><path class="cls-4" d="M126.05,139l-4.89,13.19h-1.71L114.74,139h1.65l3.66,10.46a6.7,6.7,0,0,1,.26,1.16,8.16,8.16,0,0,1,.3-1.18L124.35,139Z"/><path class="cls-4" d="M141.36,152.14h-1.57v-8.86a19,19,0,0,1,.13-2.56,7.81,7.81,0,0,1-.4,1.27l-4.44,10.15h-.79l-4.5-10.07a9.09,9.09,0,0,1-.4-1.35v11.42h-1.57V139h2.06l4.15,9.26a12.58,12.58,0,0,1,.61,1.58,13.67,13.67,0,0,1,.63-1.58l4.13-9.15h2Z"/><path class="cls-4" d="M155.34,152.36a5.78,5.78,0,0,1-4.55-1.85,6.9,6.9,0,0,1-1.58-4.81,7.33,7.33,0,0,1,1.72-5.09,6,6,0,0,1,4.57-1.82,5.67,5.67,0,0,1,4.41,1.84,6.87,6.87,0,0,1,1.67,4.8,7.28,7.28,0,0,1-1.72,5.12A5.87,5.87,0,0,1,155.34,152.36Zm.16-12.23a4.29,4.29,0,0,0-3.38,1.57,6.71,6.71,0,0,0,0,7.85,4.13,4.13,0,0,0,3.3,1.57,4.27,4.27,0,0,0,3.42-1.43,5.73,5.73,0,0,0,1.26-4,6.07,6.07,0,0,0-1.21-4A4.17,4.17,0,0,0,155.5,140.13Z"/><path class="cls-4" d="M163.62,151.61v-1.82a4.26,4.26,0,0,0,.75.5,5.26,5.26,0,0,0,.93.36,4.48,4.48,0,0,0,1,.23,4.61,4.61,0,0,0,.91.1,3.59,3.59,0,0,0,2.12-.53,1.83,1.83,0,0,0,.7-1.58,1.75,1.75,0,0,0-.23-.92,2.61,2.61,0,0,0-.64-.72,6.8,6.8,0,0,0-1-.63l-1.22-.63c-.46-.24-.9-.47-1.29-.71a5.05,5.05,0,0,1-1-.8,3.57,3.57,0,0,1-.71-1,3.37,3.37,0,0,1-.25-1.29,3.07,3.07,0,0,1,.41-1.57,3.32,3.32,0,0,1,1-1.1,4.67,4.67,0,0,1,1.46-.65,6.75,6.75,0,0,1,1.68-.09,6.42,6.42,0,0,1,2.84.47V141a5.12,5.12,0,0,0-3-.8,4.2,4.2,0,0,0-1,.11,2.49,2.49,0,0,0-.91.33,2.59,2.59,0,0,0-.65.63,1.71,1.71,0,0,0-.25.91,1.94,1.94,0,0,0,.19.88,2,2,0,0,0,.57.67,5.66,5.66,0,0,0,.89.58c.36.19.75.41,1.23.63s.91.49,1.33.74a6.12,6.12,0,0,1,1.12.85,3.54,3.54,0,0,1,.75,1,2.93,2.93,0,0,1,.28,1.3,3.36,3.36,0,0,1-.37,1.65,3,3,0,0,1-1,1.1,4.45,4.45,0,0,1-1.57.62,8.15,8.15,0,0,1-1.78.18h-.78a7.5,7.5,0,0,1-.93-.15,7.17,7.17,0,0,1-.91-.24A3.3,3.3,0,0,1,163.62,151.61Z"/><path class="cls-4" d="M202.62,139l-4.89,13.19H196L191.31,139H193l3.66,10.46a7.8,7.8,0,0,1,.27,1.16,6.19,6.19,0,0,1,.3-1.18L201,139Z"/><path class="cls-4" d="M218,152.14h-1.57v-8.86a19,19,0,0,1,.13-2.56,8.9,8.9,0,0,1-.39,1.27l-4.51,10.15h-.76l-4.5-10.07a9.09,9.09,0,0,1-.4-1.35v11.42h-1.57V139h2.06l4.15,9.26a12.58,12.58,0,0,1,.61,1.58,13.67,13.67,0,0,1,.63-1.58l4.13-9.15h1.93Z"/><path class="cls-4" d="M231.91,152.36a5.77,5.77,0,0,1-4.49-1.85,6.84,6.84,0,0,1-1.68-4.81,7.28,7.28,0,0,1,1.71-5.09,6,6,0,0,1,4.71-1.88,5.66,5.66,0,0,1,4.42,1.84,6.86,6.86,0,0,1,1.66,4.8,7.33,7.33,0,0,1-1.71,5.12A5.92,5.92,0,0,1,231.91,152.36Zm.11-12.23a4.29,4.29,0,0,0-3.38,1.57,6.74,6.74,0,0,0,0,7.85,4.13,4.13,0,0,0,3.3,1.57,4.3,4.3,0,0,0,3.43-1.43,5.67,5.67,0,0,0,1.25-4,6,6,0,0,0-1.21-4A4.16,4.16,0,0,0,232,140.13Z"/><path class="cls-4" d="M240.19,151.61v-1.82a4.26,4.26,0,0,0,.75.5,5.26,5.26,0,0,0,.93.36,4.48,4.48,0,0,0,1,.23,4.61,4.61,0,0,0,.91.1,3.59,3.59,0,0,0,2.12-.53,2,2,0,0,0,.47-2.5,2.46,2.46,0,0,0-.64-.72,6.8,6.8,0,0,0-1-.63l-1.22-.63c-.46-.24-.9-.47-1.29-.71a5.05,5.05,0,0,1-1-.8,3.34,3.34,0,0,1-.7-1,3.38,3.38,0,0,1-.26-1.29,3.17,3.17,0,0,1,.41-1.57,3.32,3.32,0,0,1,1-1.1,4.67,4.67,0,0,1,1.46-.65,7.28,7.28,0,0,1,1.68-.2,6.42,6.42,0,0,1,2.84.47v1.73a5.12,5.12,0,0,0-3-.8,4.26,4.26,0,0,0-1,.11,2.69,2.69,0,0,0-.91.33,2.59,2.59,0,0,0-.65.63,1.71,1.71,0,0,0-.25.91,1.94,1.94,0,0,0,.19.88,2,2,0,0,0,.57.67,5.66,5.66,0,0,0,.89.58c.36.19.76.41,1.23.63s.91.49,1.33.74a6.12,6.12,0,0,1,1.12.85,3.54,3.54,0,0,1,.75,1.05,2.8,2.8,0,0,1,.28,1.3,3.33,3.33,0,0,1-.37,1.65,3,3,0,0,1-1,1.1,4.45,4.45,0,0,1-1.57.62,8.15,8.15,0,0,1-1.78.18h-.78a7.5,7.5,0,0,1-.93-.15,7.17,7.17,0,0,1-.91-.24A3.5,3.5,0,0,1,240.19,151.61Z"/><polygon class="cls-4" points="109.59 210.26 108.02 210.26 108.02 204.24 101.22 204.24 101.22 210.26 99.64 210.26 99.64 197.06 101.22 197.06 101.22 202.84 108.05 202.84 108.05 197.06 109.62 197.06 109.59 210.26"/><path class="cls-4" d="M120.35,200.83l-4.34,11c-.76,1.94-1.85,2.92-3.25,2.92a3.67,3.67,0,0,1-1-.11v-1.35a3,3,0,0,0,.89.16,1.87,1.87,0,0,0,1.72-1.36l.75-1.79-3.67-9.42h1.63l2.56,7.26a3,3,0,0,0,.19.7,3.37,3.37,0,0,1,.19-.69l2.68-7.27Z"/><path class="cls-4" d="M123.52,208.89v5.7H122V200.83h1.57v1.65a3.57,3.57,0,0,1,3.25-1.87,3.45,3.45,0,0,1,2.84,1.27,5.13,5.13,0,0,1,1,3.38,5.82,5.82,0,0,1-1.14,3.8,3.86,3.86,0,0,1-3.14,1.42A3.15,3.15,0,0,1,123.52,208.89Zm0-3.8v1.32a2.8,2.8,0,0,0,.75,2,2.7,2.7,0,0,0,4.07-.24,4.74,4.74,0,0,0,.79-2.9,3.81,3.81,0,0,0-.73-2.47,2.43,2.43,0,0,0-2-.9,2.71,2.71,0,0,0-2.12.92,3.42,3.42,0,0,0-.81,2.29Z"/><path class="cls-4" d="M140.62,205.92H134a3.67,3.67,0,0,0,.85,2.44,2.93,2.93,0,0,0,2.23.84,4.64,4.64,0,0,0,2.94-1v1.43a5.58,5.58,0,0,1-3.3.9,4,4,0,0,1-3.14-1.29,6,6,0,0,1,.09-7.2,4,4,0,0,1,3.14-1.38,3.57,3.57,0,0,1,2.88,1.2,5,5,0,0,1,1,3.33Zm-1.57-1.27a3.06,3.06,0,0,0-.63-2,2.17,2.17,0,0,0-1.72-.73,2.48,2.48,0,0,0-1.83.76,3.51,3.51,0,0,0-.91,2Z"/><path class="cls-4" d="M147.82,202.36a1.76,1.76,0,0,0-1.13-.3,1.89,1.89,0,0,0-1.57.91,4.12,4.12,0,0,0-.65,2.48v4.81h-1.54v-9.43h1.57v1.95a3.18,3.18,0,0,1,1-1.57,2.4,2.4,0,0,1,2.37-.42Z"/><path class="cls-4" d="M156.86,200.83l-3.75,9.43h-1.48l-3.56-9.43h1.57l2.39,6.85a5,5,0,0,1,.33,1.32,6.34,6.34,0,0,1,.29-1.29l2.5-6.88Z"/><path class="cls-4" d="M159.27,198.48a1,1,0,0,1-1-1,1,1,0,0,1,.29-.7,1,1,0,0,1,1.38,0,.89.89,0,0,1,.3.7.92.92,0,0,1-.3.68A1,1,0,0,1,159.27,198.48Zm.74,11.81h-1.58v-9.43H160Z"/><path class="cls-4" d="M162.49,209.91v-1.57a4.36,4.36,0,0,0,2.71.91q2,0,2-1.32a1,1,0,0,0-.17-.64,1.55,1.55,0,0,0-.46-.46,3.36,3.36,0,0,0-.67-.37l-.85-.33a12.11,12.11,0,0,1-1.1-.51,3.59,3.59,0,0,1-.78-.56,2.19,2.19,0,0,1-.49-.72,2.65,2.65,0,0,1-.16-1,2.2,2.2,0,0,1,.3-1.17,2.59,2.59,0,0,1,.82-.86,4.05,4.05,0,0,1,1.14-.52,5.69,5.69,0,0,1,1.36-.17,5.46,5.46,0,0,1,2.18.42v1.57a4.28,4.28,0,0,0-2.39-.67,3.31,3.31,0,0,0-.77.09,2,2,0,0,0-.58.27,1.18,1.18,0,0,0-.38.42,1.14,1.14,0,0,0-.14.54,1.19,1.19,0,0,0,.14.61,1.36,1.36,0,0,0,.4.46,3.38,3.38,0,0,0,.62.34l.84.35a10.93,10.93,0,0,1,1.11.48,4.51,4.51,0,0,1,.85.57,2.19,2.19,0,0,1,.74,1.71,2.33,2.33,0,0,1-.32,1.23,2.59,2.59,0,0,1-.83.85,3.88,3.88,0,0,1-1.18.51,5.55,5.55,0,0,1-1.41.16A5.25,5.25,0,0,1,162.49,209.91Z"/><path class="cls-4" d="M175,210.48a4.37,4.37,0,0,1-3.33-1.32,4.93,4.93,0,0,1-1.26-3.51,5.13,5.13,0,0,1,1.31-3.7,4.7,4.7,0,0,1,3.5-1.34,4.23,4.23,0,0,1,3.3,1.31,5.93,5.93,0,0,1-.1,7.21A4.54,4.54,0,0,1,175,210.48Zm.11-8.6a2.85,2.85,0,0,0-2.29,1,4,4,0,0,0-.85,2.74,3.85,3.85,0,0,0,.85,2.64,2.91,2.91,0,0,0,2.29.95,2.74,2.74,0,0,0,2.25-.94,5.1,5.1,0,0,0,0-5.42A2.76,2.76,0,0,0,175.1,201.88Z"/><path class="cls-4" d="M187,202.36a1.79,1.79,0,0,0-1.14-.3,1.92,1.92,0,0,0-1.57.91,4.25,4.25,0,0,0-.66,2.48v4.81h-1.57v-9.43h1.57v1.95a3.1,3.1,0,0,1,1-1.57,2.4,2.4,0,0,1,2.39-.42Z"/><polygon class="cls-4" points="120.08 249.52 118.51 249.52 118.51 243.51 111.71 243.51 111.71 249.52 110.14 249.52 110.14 236.33 111.71 236.33 111.71 242.11 118.54 242.11 118.54 236.33 120.11 236.33 120.08 249.52"/><path class="cls-4" d="M127.23,249.74a4.37,4.37,0,0,1-3.35-1.32,4.83,4.83,0,0,1-1.24-3.5,5.11,5.11,0,0,1,1.29-3.71,4.73,4.73,0,0,1,3.52-1.33,4.18,4.18,0,0,1,3.28,1.3,5.93,5.93,0,0,1-.1,7.21A4.44,4.44,0,0,1,127.23,249.74Zm.11-8.59a2.88,2.88,0,0,0-2.31,1,4,4,0,0,0-.85,2.73,3.78,3.78,0,0,0,.86,2.64,2.91,2.91,0,0,0,2.3,1,2.77,2.77,0,0,0,2.24-.94,5.06,5.06,0,0,0,0-5.42,2.73,2.73,0,0,0-2.18-1Z"/><path class="cls-4" d="M133.82,249.18v-1.57a4.48,4.48,0,0,0,2.7.91c1.34,0,2-.44,2-1.32a1.34,1.34,0,0,0-.17-.65,1.64,1.64,0,0,0-.46-.45,3.88,3.88,0,0,0-.69-.38l-.83-.33a8.41,8.41,0,0,1-1.1-.5,3.43,3.43,0,0,1-.8-.57,2.52,2.52,0,0,1-.48-.72,2.58,2.58,0,0,1-.15-1,2.16,2.16,0,0,1,.3-1.16,2.66,2.66,0,0,1,.81-.86,3.74,3.74,0,0,1,1.15-.52,5.62,5.62,0,0,1,3.53.25v1.57a4.23,4.23,0,0,0-2.4-.67,2.7,2.7,0,0,0-.75.09,1.54,1.54,0,0,0-.58.27,1.18,1.18,0,0,0-.38.42,1,1,0,0,0-.14.54,1.19,1.19,0,0,0,.14.61,1.3,1.3,0,0,0,.39.45,3.1,3.1,0,0,0,.61.35l.85.34c.38.15.75.31,1.12.49a4.86,4.86,0,0,1,.85.57,2.22,2.22,0,0,1,.53.74,2.27,2.27,0,0,1,.19,1,2.35,2.35,0,0,1-.3,1.22,2.5,2.5,0,0,1-.83.85,4,4,0,0,1-1.18.52,6.1,6.1,0,0,1-1.41.16A5.29,5.29,0,0,1,133.82,249.18Z"/><path class="cls-4" d="M146.75,249.43a2.83,2.83,0,0,1-1.4.3c-1.65,0-2.48-.93-2.48-2.77v-5.57H141.3V240.1h1.57v-2.36l1.57-.5V240h2.37v1.28h-2.43v5.31a2.07,2.07,0,0,0,.33,1.35,1.25,1.25,0,0,0,1.06.41,1.55,1.55,0,0,0,1-.31Z"/><path class="cls-4" d="M159.46,249.74a5.75,5.75,0,0,1-4.5-1.85,6.82,6.82,0,0,1-1.69-4.81A7.33,7.33,0,0,1,155,238a6,6,0,0,1,4.72-1.88A5.63,5.63,0,0,1,164.1,238a6.89,6.89,0,0,1,1.69,4.8,7.39,7.39,0,0,1-1.72,5.12A5.91,5.91,0,0,1,159.46,249.74Zm.11-12.23a4.29,4.29,0,0,0-3.38,1.57,6.65,6.65,0,0,0,0,7.85,4.12,4.12,0,0,0,3.3,1.49,4.28,4.28,0,0,0,3.42-1.43,5.75,5.75,0,0,0,1.26-4,6,6,0,0,0-1.23-4A4.09,4.09,0,0,0,159.57,237.51Z"/><path class="cls-4" d="M167.73,249v-1.82a4.58,4.58,0,0,0,.74.5,7.45,7.45,0,0,0,.93.36,5.29,5.29,0,0,0,1,.24,4.58,4.58,0,0,0,.9.09,3.63,3.63,0,0,0,2.13-.53,1.79,1.79,0,0,0,.71-1.57,1.68,1.68,0,0,0-.24-.93,2.59,2.59,0,0,0-.64-.72,6.38,6.38,0,0,0-1-.63l-1.22-.63-1.29-.71a5.34,5.34,0,0,1-1-.8,3.26,3.26,0,0,1-.63-1,3.11,3.11,0,0,1-.25-1.28,3.05,3.05,0,0,1,.39-1.57,3.64,3.64,0,0,1,1-1.1,5,5,0,0,1,1.48-.65,6.33,6.33,0,0,1,1.68-.2,6.42,6.42,0,0,1,2.84.47v1.73a5.14,5.14,0,0,0-3-.8,3.89,3.89,0,0,0-1,.11,2.64,2.64,0,0,0-.9.33,2.22,2.22,0,0,0-.64.62,1.66,1.66,0,0,0-.25.92,1.94,1.94,0,0,0,.19.88,2.19,2.19,0,0,0,.55.67,5.4,5.4,0,0,0,.91.58c.34.19.75.41,1.21.63s.92.49,1.35.74a6.53,6.53,0,0,1,1.11.85,3.76,3.76,0,0,1,.76,1.05,2.93,2.93,0,0,1,.28,1.3,3.08,3.08,0,0,1-1.41,2.75,4.51,4.51,0,0,1-1.57.61,8.31,8.31,0,0,1-1.79.19h-.77a6.08,6.08,0,0,1-.95-.16c-.3-.06-.61-.14-.91-.23A2.91,2.91,0,0,1,167.73,249Z"/><path class="cls-4" d="M354.68,18.92V16a5.33,5.33,0,0,0,1.74,1,5.15,5.15,0,0,0,1.9.34,3.48,3.48,0,0,0,1-.11,2.52,2.52,0,0,0,.71-.26,1.3,1.3,0,0,0,.41-.43,1.08,1.08,0,0,0,.14-.53,1.2,1.2,0,0,0-.22-.69,2.36,2.36,0,0,0-.64-.58,6.78,6.78,0,0,0-.92-.49c-.34-.17-.72-.33-1.13-.5a5.54,5.54,0,0,1-2.3-1.57,3.38,3.38,0,0,1-.71-2.16A3.61,3.61,0,0,1,355,8.16a3.61,3.61,0,0,1,1.13-1.23,5.1,5.1,0,0,1,1.65-.7,8,8,0,0,1,2-.22,11.06,11.06,0,0,1,1.82.12,6.68,6.68,0,0,1,1.46.38V9.26a4.3,4.3,0,0,0-.72-.41,5.84,5.84,0,0,0-.8-.28,5.71,5.71,0,0,0-.82-.18h-.78a4.05,4.05,0,0,0-.92.1,2.57,2.57,0,0,0-.7.26,1.29,1.29,0,0,0-.44.43.92.92,0,0,0-.16.53,1.16,1.16,0,0,0,.17.6,1.87,1.87,0,0,0,.51.5,3.81,3.81,0,0,0,.78.46c.34.17.69.33,1,.47a10.94,10.94,0,0,1,1.41.71,4.63,4.63,0,0,1,1.09.83,3.32,3.32,0,0,1,.69,1.08,3.92,3.92,0,0,1,.23,1.4,3.83,3.83,0,0,1-.41,1.85,3.23,3.23,0,0,1-1.14,1.21,4.87,4.87,0,0,1-1.67.68,10.38,10.38,0,0,1-2,.2,11.07,11.07,0,0,1-2.07-.19A7,7,0,0,1,354.68,18.92Z"/><path class="cls-4" d="M374,15.54h-6.15c.1,1.37,1,2,2.6,2a5.12,5.12,0,0,0,2.73-.72V19a7.11,7.11,0,0,1-3.39.7,4.7,4.7,0,0,1-3.55-1.27A4.7,4.7,0,0,1,365,14.85a5.07,5.07,0,0,1,1.35-3.71,4.53,4.53,0,0,1,3.36-1.38A4.12,4.12,0,0,1,372.86,11,4.72,4.72,0,0,1,374,14.31Zm-2.69-1.79c0-1.35-.52-2-1.57-2a1.62,1.62,0,0,0-1.21.58,2.8,2.8,0,0,0-.61,1.45Z"/><path class="cls-4" d="M381.91,12.62a2.38,2.38,0,0,0-1.22-.28,1.74,1.74,0,0,0-1.48.69,3,3,0,0,0-.53,1.88v4.51h-2.91V10h2.91v1.75a2.5,2.5,0,0,1,2.48-1.92,2.21,2.21,0,0,1,.72.11Z"/><path class="cls-4" d="M393,10l-3.45,9.43h-3.32L382.88,10H386l1.57,5.82a7.26,7.26,0,0,1,.31,1.66,10.69,10.69,0,0,1,.33-1.57L390,10Z"/><path class="cls-4" d="M402.52,15.54h-6.14c.09,1.37,1,2,2.57,2a5.18,5.18,0,0,0,2.74-.72V19a7.12,7.12,0,0,1-3.4.7,4.71,4.71,0,0,1-3.55-1.27,4.82,4.82,0,0,1-1.25-3.53,5,5,0,0,1,1.36-3.71,4.51,4.51,0,0,1,3.35-1.38A4.13,4.13,0,0,1,401.34,11a4.73,4.73,0,0,1,1.13,3.33Zm-2.7-1.79c0-1.35-.55-2-1.57-2a1.6,1.6,0,0,0-1.21.58,2.61,2.61,0,0,0-.63,1.45Z"/><path class="cls-4" d="M410.4,12.62a2.6,2.6,0,0,0-1.22-.28,1.76,1.76,0,0,0-1.49.69,3.07,3.07,0,0,0-.54,1.88v4.51h-2.9V10h2.9v1.75a2.52,2.52,0,0,1,2.48-1.92,2.27,2.27,0,0,1,.73.11Z"/><path class="cls-4" d="M379.81,73.61h-1.72L376.7,69.9h-5.6l-1.31,3.71h-1.73l5.07-13.2h1.57Zm-3.62-5.09-2.07-5.62a5.58,5.58,0,0,1-.2-.88,5.66,5.66,0,0,1-.22.88l-2.06,5.62Z"/><path class="cls-4" d="M383.09,72.24v5.7h-1.57V64.18h1.57v1.57a3.62,3.62,0,0,1,3.3-1.79,3.44,3.44,0,0,1,2.84,1.28,5.22,5.22,0,0,1,1,3.37,5.81,5.81,0,0,1-1.16,3.8A3.82,3.82,0,0,1,386,73.83,3.16,3.16,0,0,1,383.09,72.24Zm0-3.8v1.32a2.8,2.8,0,0,0,.75,2,2.49,2.49,0,0,0,1.93.81,2.53,2.53,0,0,0,2.16-1,4.81,4.81,0,0,0,.77-2.9,3.83,3.83,0,0,0-.73-2.47,2.39,2.39,0,0,0-2-.89,2.64,2.64,0,0,0-2.12.91,3.37,3.37,0,0,0-.83,2.29Z"/><path class="cls-4" d="M394.24,72.24v5.7h-1.57V64.18h1.57v1.57A3.6,3.6,0,0,1,397.38,64a3.46,3.46,0,0,1,2.85,1.28,5.22,5.22,0,0,1,1,3.37,5.88,5.88,0,0,1-1.15,3.8A3.89,3.89,0,0,1,397,73.83,3.15,3.15,0,0,1,394.24,72.24Zm0-3.8v1.32a2.75,2.75,0,0,0,.77,2,2.7,2.7,0,0,0,4.07-.24,4.65,4.65,0,0,0,.78-2.9,3.81,3.81,0,0,0-.73-2.47,2.36,2.36,0,0,0-2-.89,2.64,2.64,0,0,0-2.12.91,3.36,3.36,0,0,0-.91,2.29Z"/><path class="cls-4" d="M408.85,73.61h-1.57V62.2a4,4,0,0,1-.51.41,7,7,0,0,1-.75.44l-.78.35a5.85,5.85,0,0,1-.92.31V62.14a6.62,6.62,0,0,0,1.06-.36c.37-.16.74-.33,1.1-.53s.69-.4,1-.6.55-.41.81-.63h.59Z"/><path class="cls-4" d="M453.8,73.61h-1.71l-1.4-3.71h-5.61l-1.3,3.71h-1.73l5.06-13.2h1.57Zm-3.63-5.09L448.1,62.9a5.54,5.54,0,0,1-.19-.88,5.58,5.58,0,0,1-.2.88l-2.06,5.62Z"/><path class="cls-4" d="M457.07,72.24v5.7H455.5V64.18h1.57v1.57a3.58,3.58,0,0,1,3.25-1.87,3.43,3.43,0,0,1,2.84,1.28,5.1,5.1,0,0,1,1,3.37A5.84,5.84,0,0,1,463,72.34a3.88,3.88,0,0,1-3.14,1.41A3.15,3.15,0,0,1,457.07,72.24Zm0-3.8v1.32a2.76,2.76,0,0,0,.77,2,2.7,2.7,0,0,0,4.07-.24,4.71,4.71,0,0,0,.78-2.9,3.9,3.9,0,0,0-.72-2.47,2.41,2.41,0,0,0-2-.89,2.64,2.64,0,0,0-2.12.91A3.36,3.36,0,0,0,457.07,68.44Z"/><path class="cls-4" d="M468.16,72.24v5.7h-1.57V64.18h1.57v1.57a3.63,3.63,0,0,1,3.26-1.87,3.48,3.48,0,0,1,2.85,1.28,5.22,5.22,0,0,1,1,3.37,6,6,0,0,1-1.15,3.81A3.88,3.88,0,0,1,471,73.75,3.13,3.13,0,0,1,468.16,72.24Zm0-3.8v1.32a2.8,2.8,0,0,0,.75,2A2.72,2.72,0,0,0,473,71.5a4.67,4.67,0,0,0,.77-2.9,3.76,3.76,0,0,0-.72-2.47,2.39,2.39,0,0,0-2-.89,2.64,2.64,0,0,0-2.12.91,3.35,3.35,0,0,0-.9,2.29Z"/><path class="cls-4" d="M488.48,63.87a2.51,2.51,0,0,0-.19-1,2,2,0,0,0-.52-.76,2.08,2.08,0,0,0-.76-.44,2.64,2.64,0,0,0-1-.15,3.15,3.15,0,0,0-.87.12,4.05,4.05,0,0,0-.81.33,4.42,4.42,0,0,0-.77.5,5.55,5.55,0,0,0-.71.66V61.51a4.14,4.14,0,0,1,1.43-.94,4.83,4.83,0,0,1,1.92-.33,4.68,4.68,0,0,1,1.57.24,3.51,3.51,0,0,1,1.19.67,3.17,3.17,0,0,1,.79,1.12,3.66,3.66,0,0,1,.29,1.57,4.79,4.79,0,0,1-.18,1.41,4.47,4.47,0,0,1-.54,1.2,6.68,6.68,0,0,1-.91,1.08,13,13,0,0,1-1.3,1l-1.57,1.13a7.32,7.32,0,0,0-1,.88,2.45,2.45,0,0,0-.49.82,2.72,2.72,0,0,0-.14.94h6.56V73.7h-8.13V73a5.37,5.37,0,0,1,.17-1.49,3.83,3.83,0,0,1,.61-1.21,5.87,5.87,0,0,1,1.12-1.16A21.05,21.05,0,0,1,486,67.87a10.24,10.24,0,0,0,1.19-1,4.34,4.34,0,0,0,.77-.94,3,3,0,0,0,.43-1A4.13,4.13,0,0,0,488.48,63.87Z"/><path class="cls-4" d="M533,73.61h-1.71l-1.4-3.71h-5.59l-1.32,3.71H521.2l5.07-13.2h1.57Zm-3.63-5.09-2.07-5.62A4.69,4.69,0,0,1,527,62a5.66,5.66,0,0,1-.22.88l-2.06,5.62Z"/><path class="cls-4" d="M536.23,72.24v5.7h-1.57V64.18h1.57v1.57a3.62,3.62,0,0,1,3.27-1.87,3.47,3.47,0,0,1,2.84,1.28,5.22,5.22,0,0,1,1,3.37,5.86,5.86,0,0,1-1.16,3.81,3.81,3.81,0,0,1-3.14,1.41A3.16,3.16,0,0,1,536.23,72.24Zm0-3.8v1.32a2.8,2.8,0,0,0,.75,2,2.73,2.73,0,0,0,4.09-.24,4.74,4.74,0,0,0,.77-2.9,3.82,3.82,0,0,0-.72-2.47,2.42,2.42,0,0,0-2-.89,2.64,2.64,0,0,0-2.12.91,3.37,3.37,0,0,0-.83,2.29Z"/><path class="cls-4" d="M547.32,72.24v5.7h-1.57V64.18h1.57v1.57a3.58,3.58,0,0,1,3.25-1.87,3.43,3.43,0,0,1,2.84,1.28,5.1,5.1,0,0,1,1,3.37,5.84,5.84,0,0,1-1.14,3.81,3.88,3.88,0,0,1-3.14,1.41A3.16,3.16,0,0,1,547.32,72.24Zm0-3.8v1.32a2.71,2.71,0,0,0,.77,2,2.7,2.7,0,0,0,4.07-.24,4.65,4.65,0,0,0,.78-2.9,3.76,3.76,0,0,0-.74-2.47,2.33,2.33,0,0,0-2-.89,2.64,2.64,0,0,0-2.12.91,3.39,3.39,0,0,0-.85,2.29Z"/><path class="cls-4" d="M564.09,69.87a3.7,3.7,0,0,1-.34,1.57,3.58,3.58,0,0,1-.94,1.24,4.34,4.34,0,0,1-1.46.8,5.64,5.64,0,0,1-1.9.3,5.52,5.52,0,0,1-3-.72V71.49a4.94,4.94,0,0,0,3.14,1.05,3.74,3.74,0,0,0,1.24-.19,2.76,2.76,0,0,0,1-.5,2.43,2.43,0,0,0,.62-.8,2.39,2.39,0,0,0,.21-1.06c0-1.72-1.23-2.59-3.68-2.59h-1.1V66.13h1c2.18,0,3.27-.82,3.27-2.43s-.84-2.25-2.49-2.25a4.24,4.24,0,0,0-2.62.94V60.93a5.72,5.72,0,0,1,3-.75,4.68,4.68,0,0,1,1.49.22,3.61,3.61,0,0,1,1.15.64,2.87,2.87,0,0,1,.75,1,2.92,2.92,0,0,1,.26,1.27,3.14,3.14,0,0,1-2.63,3.34,4.37,4.37,0,0,1,1.24.33,3,3,0,0,1,1.64,1.61A3,3,0,0,1,564.09,69.87Z"/><polygon class="cls-4" points="382.41 112.87 375.56 112.87 375.56 99.68 377.14 99.68 377.14 111.48 382.43 111.48 382.41 112.87"/><path class="cls-4" d="M385,101.09a.9.9,0,0,1-.69-.28,1,1,0,0,1-.3-.69,1,1,0,0,1,.3-.71.94.94,0,0,1,.69-.28,1,1,0,0,1,.69.28.91.91,0,0,1,.3.71.88.88,0,0,1-.3.68A.89.89,0,0,1,385,101.09Zm.72,11.82h-1.57v-9.43h1.57Z"/><path class="cls-4" d="M390.35,111.51v1.36h-1.58V98.93h1.58v6.17a3.59,3.59,0,0,1,3.26-1.87,3.48,3.48,0,0,1,2.85,1.27,5.26,5.26,0,0,1,1,3.38,5.88,5.88,0,0,1-1.15,3.8,3.85,3.85,0,0,1-3.14,1.41A3.12,3.12,0,0,1,390.35,111.51Zm0-3.8V109a2.8,2.8,0,0,0,.75,2,2.72,2.72,0,0,0,2.09.8,2.68,2.68,0,0,0,2-1,4.7,4.7,0,0,0,.79-2.91,3.75,3.75,0,0,0-.74-2.46,2.37,2.37,0,0,0-2-.9,2.67,2.67,0,0,0-2.12.91,3.42,3.42,0,0,0-.84,2.3Z"/><path class="cls-4" d="M399.31,112.53V111a4.52,4.52,0,0,0,2.72.91c1.32,0,2-.44,2-1.32a1.19,1.19,0,0,0-.18-.64,1.47,1.47,0,0,0-.47-.46,3.4,3.4,0,0,0-.67-.38l-.85-.33c-.41-.17-.77-.33-1.1-.5a3.65,3.65,0,0,1-.79-.56,2.34,2.34,0,0,1-.47-.73,2.59,2.59,0,0,1-.17-1,2.17,2.17,0,0,1,.31-1.16,2.89,2.89,0,0,1,.81-.86,3.69,3.69,0,0,1,1.16-.52,5.59,5.59,0,0,1,3.52.25v1.57a4.22,4.22,0,0,0-2.39-.67,2.85,2.85,0,0,0-.77.09,2,2,0,0,0-.58.27,1.69,1.69,0,0,0-.38.42,1.33,1.33,0,0,0,0,1.15,1.53,1.53,0,0,0,.39.45,3.25,3.25,0,0,0,.63.35l.83.35a8.71,8.71,0,0,1,1.13.48,4.51,4.51,0,0,1,.85.57,2.21,2.21,0,0,1,.54.74,2.52,2.52,0,0,1-.13,2.19,2.39,2.39,0,0,1-.82.85,3.72,3.72,0,0,1-1.19.52,6,6,0,0,1-1.4.16A5.36,5.36,0,0,1,399.31,112.53Z"/><polygon class="cls-4" points="458.98 112.87 452.14 112.87 452.14 99.68 453.71 99.68 453.71 111.48 459 111.48 458.98 112.87"/><path class="cls-4" d="M461.59,101.09a.9.9,0,0,1-.69-.28,1,1,0,0,1-.3-.69,1,1,0,0,1,.3-.71.94.94,0,0,1,.69-.28,1,1,0,0,1,.69.28.91.91,0,0,1,.3.71.85.85,0,0,1-.3.68A.89.89,0,0,1,461.59,101.09Zm.72,11.82h-1.57v-9.43h1.57Z"/><path class="cls-4" d="M466.92,111.51v1.36h-1.57V98.93h1.57v6.17a3.59,3.59,0,0,1,3.26-1.87A3.48,3.48,0,0,1,473,104.5a5.26,5.26,0,0,1,1,3.38,5.88,5.88,0,0,1-1.15,3.8,3.85,3.85,0,0,1-3.14,1.41A3.12,3.12,0,0,1,466.92,111.51Zm0-3.8V109a2.8,2.8,0,0,0,.75,2,2.73,2.73,0,0,0,2.1.8,2.68,2.68,0,0,0,2-1,4.7,4.7,0,0,0,.79-2.91,3.75,3.75,0,0,0-.74-2.46,2.37,2.37,0,0,0-2-.9,2.67,2.67,0,0,0-2.12.91,3.42,3.42,0,0,0-.84,2.3Z"/><path class="cls-4" d="M475.92,112.53V111a4.49,4.49,0,0,0,2.71.91c1.32,0,2-.44,2-1.32a1.28,1.28,0,0,0-.17-.64,1.62,1.62,0,0,0-.48-.46,3.14,3.14,0,0,0-.67-.38l-.85-.33c-.41-.17-.77-.33-1.1-.5a3.59,3.59,0,0,1-.78-.56,2.21,2.21,0,0,1-.48-.73,2.81,2.81,0,0,1-.17-1,2.18,2.18,0,0,1,.32-1.16,2.74,2.74,0,0,1,.8-.86,3.79,3.79,0,0,1,1.16-.52,5.59,5.59,0,0,1,3.52.25v1.57a4.2,4.2,0,0,0-2.39-.67,2.85,2.85,0,0,0-.77.09,2,2,0,0,0-.58.27,1.69,1.69,0,0,0-.38.42,1.06,1.06,0,0,0-.12.43,1.28,1.28,0,0,0,.12.61,1.56,1.56,0,0,0,.4.45,2.91,2.91,0,0,0,.62.35l.84.35a10.07,10.07,0,0,1,1.13.48,4.86,4.86,0,0,1,.85.57,2.33,2.33,0,0,1,.53.74,2.3,2.3,0,0,1,.19,1,2.28,2.28,0,0,1-.32,1.22,2.45,2.45,0,0,1-.81.85,3.77,3.77,0,0,1-1.2.52,5.87,5.87,0,0,1-1.39.16A5.26,5.26,0,0,1,475.92,112.53Z"/><polygon class="cls-4" points="535.6 112.87 528.75 112.87 528.75 99.68 530.33 99.68 530.33 111.48 535.6 111.48 535.6 112.87"/><path class="cls-4" d="M538.16,101.09a.9.9,0,0,1-.69-.28,1,1,0,0,1-.3-.69,1,1,0,0,1,.3-.71.94.94,0,0,1,.69-.28,1,1,0,0,1,.69.28.91.91,0,0,1,.3.71.85.85,0,0,1-.3.68A.89.89,0,0,1,538.16,101.09Zm.72,11.82h-1.57v-9.43h1.57Z"/><path class="cls-4" d="M543.46,111.51v1.36h-1.58V98.93h1.58v6.17a3.59,3.59,0,0,1,3.26-1.87,3.48,3.48,0,0,1,2.85,1.27,5.26,5.26,0,0,1,1,3.38,5.88,5.88,0,0,1-1.15,3.8,3.85,3.85,0,0,1-3.14,1.41A3.12,3.12,0,0,1,543.46,111.51Zm0-3.8V109a2.8,2.8,0,0,0,.75,2,2.72,2.72,0,0,0,2.09.8,2.68,2.68,0,0,0,2-1,4.7,4.7,0,0,0,.79-2.91,3.75,3.75,0,0,0-.74-2.46,2.37,2.37,0,0,0-2-.9,2.67,2.67,0,0,0-2.12.91A3.34,3.34,0,0,0,543.46,107.71Z"/><path class="cls-4" d="M552.46,112.53V111a4.49,4.49,0,0,0,2.71.91c1.32,0,2-.44,2-1.32a1.19,1.19,0,0,0-.18-.64,1.47,1.47,0,0,0-.47-.46,3.14,3.14,0,0,0-.67-.38l-.85-.33c-.41-.17-.77-.33-1.1-.5a3.59,3.59,0,0,1-.78-.56,2.21,2.21,0,0,1-.48-.73,2.81,2.81,0,0,1-.17-1,2.1,2.1,0,0,1,.32-1.16,2.74,2.74,0,0,1,.8-.86,3.79,3.79,0,0,1,1.16-.52,5.59,5.59,0,0,1,3.52.25v1.57a4.2,4.2,0,0,0-2.39-.67,2.85,2.85,0,0,0-.77.09,2,2,0,0,0-.58.27,1.69,1.69,0,0,0-.38.42,1.25,1.25,0,0,0-.12.54,1.28,1.28,0,0,0,.12.61,1.69,1.69,0,0,0,.39.45,3.25,3.25,0,0,0,.63.35l.84.35a10.07,10.07,0,0,1,1.13.48,4.78,4.78,0,0,1,.84.57,2.21,2.21,0,0,1,.54.74,2.3,2.3,0,0,1,.19,1,2.37,2.37,0,0,1-.32,1.22,2.45,2.45,0,0,1-.81.85,3.77,3.77,0,0,1-1.2.52,6,6,0,0,1-1.4.16A5.29,5.29,0,0,1,552.46,112.53Z"/><path class="cls-4" d="M438.05,210.26v-13.2h3.64q7,0,7,6.43a6.45,6.45,0,0,1-1.93,4.91,7.15,7.15,0,0,1-5.18,1.86Zm1.57-11.8v10.4h2a5.57,5.57,0,0,0,4-1.4,5.2,5.2,0,0,0,1.45-3.93c0-3.39-1.79-5.07-5.39-5.07Z"/><path class="cls-4" d="M455,210.48a4.44,4.44,0,0,1-3.33-1.32,4.92,4.92,0,0,1-1.25-3.51,5.08,5.08,0,0,1,1.3-3.7,4.7,4.7,0,0,1,3.5-1.34,4.18,4.18,0,0,1,3.3,1.31,5.91,5.91,0,0,1-.09,7.21A4.57,4.57,0,0,1,455,210.48Zm.11-8.6a2.91,2.91,0,0,0-2.29,1,4.14,4.14,0,0,0-.85,2.74,3.9,3.9,0,0,0,.85,2.64,2.94,2.94,0,0,0,2.29.95,2.8,2.8,0,0,0,2.27-.94,5.1,5.1,0,0,0,0-5.42A2.8,2.8,0,0,0,455.1,201.88Z"/><path class="cls-4" d="M468.53,209.82a4.93,4.93,0,0,1-2.57.66,4.36,4.36,0,0,1-3.27-1.31,4.74,4.74,0,0,1-1.22-3.41A5.18,5.18,0,0,1,462.8,202a4.69,4.69,0,0,1,3.55-1.42,5.05,5.05,0,0,1,2.2.46v1.57a3.79,3.79,0,0,0-2.25-.74,3,3,0,0,0-2.37,1,3.87,3.87,0,0,0-.92,2.71,3.69,3.69,0,0,0,.86,2.61,3,3,0,0,0,2.34,1,3.83,3.83,0,0,0,2.32-.82Z"/><polygon class="cls-4" points="478.63 210.26 476.51 210.26 472.35 205.73 472.35 205.73 472.35 210.26 470.78 210.26 470.78 196.31 472.35 196.31 472.35 205.15 472.35 205.15 476.31 200.83 478.29 200.83 473.92 205.37 478.63 210.26"/><path class="cls-4" d="M487.76,205.92H481.1a3.57,3.57,0,0,0,.85,2.44,2.93,2.93,0,0,0,2.23.84,4.59,4.59,0,0,0,2.92-1v1.43a5.52,5.52,0,0,1-3.28.9,4,4,0,0,1-3.14-1.29,5.25,5.25,0,0,1-1.15-3.61,5.2,5.2,0,0,1,1.26-3.59,4,4,0,0,1,3.14-1.38,3.55,3.55,0,0,1,2.86,1.2,5,5,0,0,1,1,3.33Zm-1.57-1.27a3.17,3.17,0,0,0-.63-2,2.14,2.14,0,0,0-1.73-.73,2.45,2.45,0,0,0-1.8.76,3.54,3.54,0,0,0-.93,2Z"/><path class="cls-4" d="M495,202.36a1.79,1.79,0,0,0-1.14-.3,1.89,1.89,0,0,0-1.57.91,4.26,4.26,0,0,0-.65,2.48v4.81H490v-9.43h1.57v1.95a3.38,3.38,0,0,1,1-1.57,2.3,2.3,0,0,1,1.48-.57,2.35,2.35,0,0,1,.91.15Z"/><polygon class="cls-4" points="443.25 249.52 441.68 249.52 441.68 243.51 434.86 243.51 434.86 249.52 433.29 249.52 433.29 236.33 434.86 236.33 434.86 242.11 441.68 242.11 441.68 236.33 443.25 236.33 443.25 249.52"/><path class="cls-4" d="M450.44,249.74a4.34,4.34,0,0,1-3.33-1.32,4.89,4.89,0,0,1-1.26-3.5,5.17,5.17,0,0,1,1.31-3.71,4.7,4.7,0,0,1,3.5-1.33,4.18,4.18,0,0,1,3.28,1.3,5.88,5.88,0,0,1-.08,7.21A4.47,4.47,0,0,1,450.44,249.74Zm.11-8.59a2.91,2.91,0,0,0-2.31,1,4.12,4.12,0,0,0-.83,2.73,3.87,3.87,0,0,0,.85,2.64,2.89,2.89,0,0,0,2.29,1,2.77,2.77,0,0,0,2.25-.94,5.1,5.1,0,0,0,0-5.42A2.73,2.73,0,0,0,450.55,241.15Z"/><path class="cls-4" d="M457,249.18v-1.57a4.52,4.52,0,0,0,2.72.91q2,0,2-1.32a1.14,1.14,0,0,0-.16-.65,1.56,1.56,0,0,0-.47-.45,3.4,3.4,0,0,0-.67-.38l-.85-.33a11.73,11.73,0,0,1-1.1-.5,3.38,3.38,0,0,1-.79-.57,2.07,2.07,0,0,1-.48-.72,2.85,2.85,0,0,1-.16-1,2.39,2.39,0,0,1,.3-1.16,2.89,2.89,0,0,1,.81-.86,3.62,3.62,0,0,1,1.17-.52,5,5,0,0,1,1.33-.17,5.31,5.31,0,0,1,2.19.42v1.57a4.25,4.25,0,0,0-2.39-.67,2.85,2.85,0,0,0-.77.09,2,2,0,0,0-.58.27,1.53,1.53,0,0,0-.38.42,1.11,1.11,0,0,0-.13.54,1.18,1.18,0,0,0,.13.61,1.53,1.53,0,0,0,.39.45,3.25,3.25,0,0,0,.63.35l.83.34c.39.15.77.31,1.13.49a3.46,3.46,0,0,1,.84.57,2.19,2.19,0,0,1,.74,1.71,2.47,2.47,0,0,1-.32,1.22,2.39,2.39,0,0,1-.82.85,3.72,3.72,0,0,1-1.19.52,6.1,6.1,0,0,1-1.41.16A5.41,5.41,0,0,1,457,249.18Z"/><path class="cls-4" d="M469.92,249.43a2.91,2.91,0,0,1-1.42.3c-1.57,0-2.48-.93-2.48-2.77v-5.57h-1.57V240.1H466v-2.36l1.57-.5V240H470v1.28h-2.37v5.31a2.19,2.19,0,0,0,.32,1.35,1.25,1.25,0,0,0,1.06.41,1.58,1.58,0,0,0,1-.31Z"/><path class="cls-4" d="M482.61,249.74a5.73,5.73,0,0,1-4.49-1.85,6.79,6.79,0,0,1-1.69-4.81,7.33,7.33,0,0,1,1.72-5.09,6,6,0,0,1,4.71-1.88,5.67,5.67,0,0,1,4.41,1.84,6.87,6.87,0,0,1,1.67,4.8,7.32,7.32,0,0,1-1.71,5.12A5.93,5.93,0,0,1,482.61,249.74Zm.11-12.23a4.29,4.29,0,0,0-3.38,1.57,6.71,6.71,0,0,0,0,7.85,4.12,4.12,0,0,0,3.3,1.49,4.24,4.24,0,0,0,3.42-1.43,5.7,5.7,0,0,0,1.26-4,6.1,6.1,0,0,0-1.21-4A4.17,4.17,0,0,0,482.72,237.51Z"/><path class="cls-4" d="M490.88,249v-1.82a3.44,3.44,0,0,0,.76.5,7,7,0,0,0,1.88.6,4.68,4.68,0,0,0,.91.09,3.58,3.58,0,0,0,2.12-.53,1.79,1.79,0,0,0,.71-1.57,1.76,1.76,0,0,0-.23-.93,2.63,2.63,0,0,0-.65-.72,6.2,6.2,0,0,0-1-.63l-1.23-.63c-.45-.23-.89-.47-1.28-.71a5.05,5.05,0,0,1-1-.8,3.57,3.57,0,0,1-.71-1,3.37,3.37,0,0,1-.25-1.29,3.18,3.18,0,0,1,.39-1.57,3.59,3.59,0,0,1,1.06-1.1,4.55,4.55,0,0,1,1.46-.64,6.78,6.78,0,0,1,1.68-.21,6.42,6.42,0,0,1,2.84.47v1.73a5.12,5.12,0,0,0-3-.8,4.88,4.88,0,0,0-1,.11,3,3,0,0,0-.91.33,2.26,2.26,0,0,0-.64.63,1.62,1.62,0,0,0-.25.91,1.91,1.91,0,0,0,.19.88,2,2,0,0,0,.56.67,5.37,5.37,0,0,0,.9.59c.34.18.75.4,1.22.62s.91.49,1.34.74a6.53,6.53,0,0,1,1.11.85,3.57,3.57,0,0,1,.76,1.05,3,3,0,0,1,.28,1.31,3.28,3.28,0,0,1-.38,1.65,3.1,3.1,0,0,1-1,1.1,4.51,4.51,0,0,1-1.57.61,8.34,8.34,0,0,1-1.8.19h-.76c-.32,0-.64-.09-.95-.16a6.88,6.88,0,0,1-.89-.24A3,3,0,0,1,490.88,249Z"/><path class="cls-4" d="M305.09,80.68l-3.52,9.42h-3.31l-3.33-9.42h3.14l1.57,5.81a7.88,7.88,0,0,1,.33,1.66,10.45,10.45,0,0,1,.34-1.57l1.73-5.9Z"/><path class="cls-4" d="M305.7,89.85V87.49a5.91,5.91,0,0,0,1.45.65,5,5,0,0,0,1.33.22,3,3,0,0,0,1.23-.22.67.67,0,0,0,.44-.65A.62.62,0,0,0,310,87a1.87,1.87,0,0,0-.54-.33,5.1,5.1,0,0,0-.69-.24l-.72-.25a7.4,7.4,0,0,1-1-.46,3.49,3.49,0,0,1-.72-.56,2.59,2.59,0,0,1-.44-.75,3.18,3.18,0,0,1-.16-1,2.57,2.57,0,0,1,.35-1.35,3,3,0,0,1,.92-.94,4.09,4.09,0,0,1,1.32-.54,7.62,7.62,0,0,1,1.57-.17,6.84,6.84,0,0,1,1.28.11c.42.07.85.16,1.27.27v2.24a4.75,4.75,0,0,0-1.2-.47,4.55,4.55,0,0,0-1.22-.17,1.69,1.69,0,0,0-.55,0,1.73,1.73,0,0,0-.44.14.67.67,0,0,0-.3.25.61.61,0,0,0-.11.35.65.65,0,0,0,.16.44,1.25,1.25,0,0,0,.44.31,3,3,0,0,0,.58.24l.66.22a9.69,9.69,0,0,1,1.05.44,2.81,2.81,0,0,1,.8.56,2.34,2.34,0,0,1,.52.76,2.79,2.79,0,0,1,.17,1,2.65,2.65,0,0,1-.36,1.43,3,3,0,0,1-1,1,4.34,4.34,0,0,1-1.38.55,7.62,7.62,0,0,1-1.57.17A8.63,8.63,0,0,1,305.7,89.85Z"/><path class="cls-4" d="M315.91,90.34a1.79,1.79,0,0,1-1.19-.44,1.46,1.46,0,0,1-.47-1.1,1.34,1.34,0,0,1,.48-1.09,1.84,1.84,0,0,1,1.23-.42,1.66,1.66,0,0,1,1.22.44,1.48,1.48,0,0,1,0,2.17A1.82,1.82,0,0,1,315.91,90.34Z"/></g></g></g><g id="clean"><g id="source-3" data-name="source"><g id="Shapes-2" data-name="Shapes"><rect id="Rectangle-path-2" data-name="Rectangle-path" class="cls-1" y="0.57" width="599.2" height="278.01"/><g id="Group-2" data-name="Group"><rect class="cls-1" x="12.94" y="27.27" width="263.09" height="251.31"/><rect class="cls-2" x="12.94" y="27.27" width="263.09" height="251.31"/></g><path id="Shape-2" data-name="Shape" class="cls-3" d="M23.94,39.37a2,2,0,0,1-2,2H2a2,2,0,0,1-1.45-.59A2,2,0,0,1,0,39.37V2.61A2,2,0,0,1,.59,1.16,2,2,0,0,1,2,.57H21.9a2,2,0,0,1,2,2Z"/><path class="cls-4" d="M3.42,22.56A2.58,2.58,0,0,1,6.05,20H18a2.61,2.61,0,0,1,1.86.75,2.68,2.68,0,0,1,0,3.72,2.61,2.61,0,0,1-1.86.75H6.05A2.63,2.63,0,0,1,3.42,22.56Z"/><circle id="Oval-2" data-name="Oval" class="cls-5" cx="6.2" cy="22.62" r="1.71"/><path class="cls-4" d="M3.42,14.86A2.62,2.62,0,0,1,4.18,13a2.53,2.53,0,0,1,1.87-.75H18a2.53,2.53,0,0,1,1.86.75,2.67,2.67,0,0,1,0,3.71,2.61,2.61,0,0,1-1.86.75H6.05A2.62,2.62,0,0,1,3.42,14.86Z"/><circle class="cls-5" cx="6.2" cy="14.86" r="1.71"/><path class="cls-4" d="M3.42,7.18a2.63,2.63,0,0,1,.77-1.85,2.57,2.57,0,0,1,1.86-.75H18a2.57,2.57,0,0,1,1.85.75A2.62,2.62,0,0,1,18,9.81H6.05A2.7,2.7,0,0,1,3.42,7.18Z"/><circle class="cls-5" cx="6.2" cy="7.18" r="1.71"/><rect class="cls-6" x="28.65" y="47.69" width="76.57" height="39.27"/><rect class="cls-6" x="105.61" y="47.69" width="76.57" height="39.27"/><rect class="cls-6" x="181.79" y="47.69" width="76.57" height="39.27"/><rect class="cls-6" x="28.65" y="86.96" width="76.57" height="39.27"/><rect class="cls-6" x="105.61" y="86.96" width="76.57" height="39.27"/><rect class="cls-6" x="181.79" y="86.96" width="76.57" height="39.27"/><rect class="cls-6" x="28.65" y="126.23" width="76.57" height="39.27"/><rect class="cls-6" x="105.61" y="126.23" width="76.57" height="39.27"/><rect class="cls-6" x="181.79" y="126.23" width="76.57" height="39.27"/><rect class="cls-7" x="28.65" y="184.34" width="231.68" height="39.27"/><rect class="cls-8" x="28.65" y="223.61" width="231.68" height="39.27"/><rect class="cls-1" x="336.11" y="27.27" width="263.09" height="251.31"/><rect class="cls-2" x="336.11" y="27.27" width="263.09" height="251.31"/><path class="cls-3" d="M347.12,39.37a2,2,0,0,1-.59,1.45,2,2,0,0,1-1.45.59H325.13a2,2,0,0,1-1.45-.6,2,2,0,0,1-.59-1.44V2.61a2,2,0,0,1,.59-1.45,2.08,2.08,0,0,1,1.45-.59H345a2.08,2.08,0,0,1,1.52.55,2,2,0,0,1,.62,1.49Z"/><path class="cls-4" d="M326.59,22.56A2.59,2.59,0,0,1,329.2,20h11.92a2.57,2.57,0,0,1,1.86.75,2.66,2.66,0,0,1,0,3.72,2.57,2.57,0,0,1-1.86.75H329.2A2.62,2.62,0,0,1,326.59,22.56Z"/><circle class="cls-5" cx="329.37" cy="22.62" r="1.71"/><path class="cls-4" d="M326.59,14.86a2.58,2.58,0,0,1,.76-1.85,2.55,2.55,0,0,1,1.85-.75h11.92A2.5,2.5,0,0,1,343,13a2.64,2.64,0,0,1,0,3.71,2.57,2.57,0,0,1-1.86.75H329.2A2.62,2.62,0,0,1,326.59,14.86Z"/><circle class="cls-5" cx="329.37" cy="14.86" r="1.71"/><path class="cls-4" d="M326.59,7.18a2.58,2.58,0,0,1,.76-1.85,2.55,2.55,0,0,1,1.85-.75h11.92A2.62,2.62,0,0,1,343,9.05a2.62,2.62,0,0,1-1.86.76H329.2A2.7,2.7,0,0,1,326.59,7.18Z"/><circle class="cls-5" cx="329.37" cy="7.18" r="1.71"/><rect class="cls-6" x="351.82" y="47.69" width="76.57" height="39.27"/><rect class="cls-6" x="428.78" y="47.69" width="76.57" height="39.27"/><rect class="cls-6" x="504.96" y="47.69" width="76.57" height="39.27"/><rect class="cls-6" x="351.82" y="86.96" width="76.57" height="39.27"/><rect class="cls-6" x="428.78" y="86.96" width="76.57" height="39.27"/><rect class="cls-6" x="504.96" y="86.96" width="76.57" height="39.27"/><rect class="cls-1" x="351.82" y="184.34" width="231.68" height="39.27"/><rect class="cls-9" x="351.82" y="184.34" width="231.68" height="39.27"/><rect class="cls-10" x="351.82" y="184.34" width="231.68" height="39.27"/><rect class="cls-8" x="351.82" y="223.61" width="231.68" height="39.27"/></g></g></g><g id="text"><path d="M32.38,22.54a12.9,12.9,0,0,0-1.71-2.11,10.57,10.57,0,0,0,.92-3.29,58,58,0,0,0,.21-5.92V4.9h6v15a2.53,2.53,0,0,1-.55,1.68c-.37.42-1.37.65-3,.67a15.46,15.46,0,0,0-.65-2.52,7.91,7.91,0,0,0,1.14.09c.59,0,.89-.35.89-1.07v-2.3H33.94A11.4,11.4,0,0,1,32.38,22.54ZM34,14.23h1.62V11.85H34C34,12.71,34,13.5,34,14.23Zm1.62-7H34V9.65h1.6Zm13,4.25v2.13a16.21,16.21,0,0,1-2.09,4.72,10.35,10.35,0,0,0,2.61,1.48c-.49.71-1,1.53-1.56,2.49a13.25,13.25,0,0,1-2.64-2,13.88,13.88,0,0,1-2.65,2.14,16.39,16.39,0,0,0-1.11-1.94v1.81H38.84V4.88h9.57a23.3,23.3,0,0,1-.18,3.71A2.79,2.79,0,0,1,47.58,10a2.16,2.16,0,0,1-1.14.63,25.94,25.94,0,0,1-3.71.09,20.85,20.85,0,0,0-.48-2.26c1.07.08,1.86.11,2.38.11a1.42,1.42,0,0,0,.84-.22c.22-.16.32-.57.32-1.24H41.21v4.45Zm-5.23,2.32a10.31,10.31,0,0,0,1.43,2.74,10.79,10.79,0,0,0,1.33-2.89h-5v6.13a10,10,0,0,0,2.08-1.44,16.09,16.09,0,0,1-1.93-3.69Z"/><path d="M56.43,13.12h2.65c-.06.59-.15,1.17-.25,1.74h7.84l-.32,4.23a3.24,3.24,0,0,1-.62,1.74,3,3,0,0,1-1.45,1,12.63,12.63,0,0,1-3.6.33c-.61,0-1.27,0-2-.05a17.42,17.42,0,0,0-.6-2.5c1.37.11,2.56.16,3.58.16A2.67,2.67,0,0,0,63,19.55a1,1,0,0,0,.55-.67,11.37,11.37,0,0,0,.17-1.78H58.26Q56.85,21,51.43,22.5q-.72-1-1.74-2.13c2.85-.68,4.73-1.77,5.66-3.27h-5V14.86h5.8C56.26,14.32,56.35,13.73,56.43,13.12ZM66.56,5.71v2a18.73,18.73,0,0,1-4.29,3,29.64,29.64,0,0,0,5.85.65c-.39.92-.72,1.74-1,2.47A32.48,32.48,0,0,1,59,12.11a43.33,43.33,0,0,1-8.25,2c-.26-.65-.59-1.43-1-2.32a41,41,0,0,0,6.27-1A12.93,12.93,0,0,1,53.67,9a21.75,21.75,0,0,1-2.31,1.64c-.42-.57-.92-1.19-1.5-1.87a16.15,16.15,0,0,0,5.36-4.61H58a18,18,0,0,1-1.13,1.58Zm-7.47,4a17.26,17.26,0,0,0,3.76-2H55.62A14.75,14.75,0,0,0,59.09,9.73Z"/><path d="M78.62,22.32v-6h3.86a8.81,8.81,0,0,1-4.59-2.25q-1.27,1.55-5,2.25h4.24v6.05H75v-.71h-3v.71H69.92V16.7l-.82.05a15.17,15.17,0,0,0-.39-1.89q5.72-.15,6.91-1.6H69V11.37h7.56a6.19,6.19,0,0,0,.12-.93h2.6a8.34,8.34,0,0,1-.13.93h2.5l-.29-.72,2.37-.3.43,1h2.8v1.89h-7.3q2,1.53,7.52,1.62a18.39,18.39,0,0,0-.48,1.91l-.76,0v5.61H83.74v-.71h-3v.67ZM69.92,4.93h7.27v5.24H69.92ZM75,18.2h-3v1.56h3Zm-.1-9.93V6.83H72.18V8.27Zm3.72-3.34h7.25v5.24H78.64Zm5.1,13.27h-3v1.56h3Zm-.11-9.93V6.83H80.92V8.27Z"/><path d="M355.14,22a13.43,13.43,0,0,0-1.71-2.12,10.43,10.43,0,0,0,.92-3.28,57.29,57.29,0,0,0,.22-5.92V4.33h6v15A2.53,2.53,0,0,1,360,21c-.36.42-1.37.65-3,.67a16.56,16.56,0,0,0-.64-2.52,7.67,7.67,0,0,0,1.13.09c.59,0,.89-.36.89-1.07v-2.3H356.7A11.4,11.4,0,0,1,355.14,22Zm1.63-8.31h1.62V11.29h-1.6C356.79,12.15,356.79,12.94,356.77,13.67Zm1.62-7h-1.6V9.08h1.6Zm13,4.25v2.13a16.28,16.28,0,0,1-2.08,4.71,10.49,10.49,0,0,0,2.6,1.49q-.74,1-1.56,2.49a13.25,13.25,0,0,1-2.64-2,14.08,14.08,0,0,1-2.64,2.13A20.18,20.18,0,0,0,364,20v1.81H361.6V4.32h9.57A23.39,23.39,0,0,1,371,8a2.83,2.83,0,0,1-.65,1.37,2.17,2.17,0,0,1-1.13.63,26.11,26.11,0,0,1-3.72.09A20.36,20.36,0,0,0,365,7.86c1.07.07,1.86.11,2.38.11a1.4,1.4,0,0,0,.85-.23c.21-.15.32-.56.32-1.24H364V11Zm-5.23,2.32A10.55,10.55,0,0,0,367.61,16,10.91,10.91,0,0,0,369,13.13h-5v6.13a10.11,10.11,0,0,0,2.08-1.44,16.51,16.51,0,0,1-1.93-3.69Z"/><path d="M379.19,12.55h2.65c-.06.6-.14,1.18-.25,1.75h7.84l-.32,4.23a3.19,3.19,0,0,1-.62,1.74,3,3,0,0,1-1.45,1,12.6,12.6,0,0,1-3.59.33c-.62,0-1.28,0-2-.05a17.42,17.42,0,0,0-.6-2.5c1.37.11,2.57.16,3.59.16a2.65,2.65,0,0,0,1.24-.24,1,1,0,0,0,.55-.68,11.34,11.34,0,0,0,.17-1.77H381q-1.41,3.91-6.82,5.4c-.49-.65-1.07-1.36-1.75-2.13,2.85-.68,4.73-1.77,5.66-3.27h-5V14.3h5.8C379,13.75,379.11,13.17,379.19,12.55Zm10.13-7.4v2a18.45,18.45,0,0,1-4.29,3,29.64,29.64,0,0,0,5.85.65c-.39.92-.72,1.74-1,2.47a32.47,32.47,0,0,1-8.16-1.71,43.15,43.15,0,0,1-8.25,1.95c-.26-.66-.59-1.43-1-2.32a42.29,42.29,0,0,0,6.27-1,13.42,13.42,0,0,1-2.31-1.74,23.29,23.29,0,0,1-2.31,1.64c-.42-.57-.92-1.19-1.5-1.88A15.92,15.92,0,0,0,378,3.57h2.8c-.35.55-.73,1.07-1.13,1.58Zm-7.47,4a17.71,17.71,0,0,0,3.76-2h-7.23A14.75,14.75,0,0,0,381.85,9.17Z"/><path d="M401.38,21.76v-6h3.86a8.81,8.81,0,0,1-4.58-2.25c-.86,1-2.51,1.78-5,2.25h4.24v6h-2.15v-.7h-2.95v.7h-2.15V16.13c-.27,0-.54.05-.82.06a12.25,12.25,0,0,0-.39-1.89q5.71-.15,6.91-1.6h-6.67V10.81h7.56a6.19,6.19,0,0,0,.12-.93H402a8.34,8.34,0,0,1-.13.93h2.51l-.3-.72,2.37-.3.43,1h2.8V12.7h-7.3q2,1.53,7.53,1.62a18.61,18.61,0,0,0-.49,1.91l-.76,0v5.6H406.5v-.7h-3v.67Zm-8.7-17.39H400V9.6h-7.27Zm5.1,13.27h-2.95V19.2h2.95Zm-.09-9.93V6.26h-2.75V7.71Zm3.71-3.34h7.25V9.6H401.4Zm5.1,13.27h-3V19.2h3Zm-.11-9.93V6.26h-2.71V7.71Z"/><path d="M309.82,87.64H297.13V85.21h12.69Zm5-8.85H302.52l-.13,2.1h11.53l-.3,7.42a3.78,3.78,0,0,1-1.15,3,4.49,4.49,0,0,1-2.88.85h-4c-.15-.75-.37-1.65-.65-2.69,1.28.06,2.54.09,3.76.09s2-.38,2.09-1.16.18-2.47.23-5.07H299.46l.52-9h2.82l-.13,2.1h12.14Z"/><path d="M48.43,58.37l1.36-.73a23.18,23.18,0,0,1,1.52,2.21l-.9.52h7.52v1.41H43.48v4.55q0,6.57-2.71,9.81a14.16,14.16,0,0,0-1.08-1.28q2.23-2.49,2.23-8.5v-6h7.85A21.14,21.14,0,0,0,48.43,58.37ZM43.37,73.64H52A89.72,89.72,0,0,0,55,63.51l1.61.44q-1.73,6.12-3.08,9.69h4.59v1.41H43.37Zm1-9.11L45.78,64c.76,2.26,1.51,4.78,2.22,7.57l-1.57.49C45.86,69.65,45.17,67.12,44.37,64.53Zm4.47-.93,1.43-.41q1,3.34,1.71,7.48l-1.64.42Q49.8,67.43,48.84,63.6Z"/><path d="M67.78,75.79v-5.9h-5.4a11.91,11.91,0,0,1-2.24,6.4c-.32-.41-.69-.83-1.1-1.28a10,10,0,0,0,1.64-3.79,30.19,30.19,0,0,0,.41-5.67V58.92H76.21V73.67c0,1.48-.7,2.21-2.1,2.21-.85,0-1.81,0-2.87,0-.07-.41-.16-.93-.28-1.54,1.07.07,2,.11,2.61.11s1.15-.37,1.15-1.1V69.89H69.27v5.9Zm-5.29-7.24h5.29V65.08H62.57A30.43,30.43,0,0,1,62.49,68.55Zm.08-8.25v3.45h5.21V60.3Zm12.15,0H69.27v3.45h5.45Zm-5.45,8.25h5.45V65.08H69.27Z"/><path d="M88.53,73.61V61.32a6.45,6.45,0,0,1-1.44,1,8.76,8.76,0,0,1-1.88.74V61.23a12.22,12.22,0,0,0,2.44-1,10.52,10.52,0,0,0,2-1.31h.69V73.61Z"/><path d="M126.72,58.89l1.36-.72a23.18,23.18,0,0,1,1.52,2.21l-.9.52h7.52v1.41H121.77v4.54q0,6.57-2.71,9.82A12.91,12.91,0,0,0,118,75.39q2.23-2.49,2.23-8.5v-6h7.85A22.64,22.64,0,0,0,126.72,58.89Zm-5.06,15.27h8.58A88.44,88.44,0,0,0,133.31,64l1.61.45q-1.72,6.12-3.08,9.68h4.59v1.41H121.66Zm1-9.11,1.41-.48c.77,2.25,1.51,4.78,2.23,7.57l-1.58.48Q123.87,68.94,122.66,65.05Zm4.47-.92,1.43-.41c.64,2.22,1.21,4.72,1.71,7.47l-1.64.43A75.75,75.75,0,0,0,127.13,64.13Z"/><path d="M146.07,76.32v-5.9h-5.39a12,12,0,0,1-2.25,6.4c-.32-.41-.69-.84-1.09-1.28A10.11,10.11,0,0,0,139,71.75a30.31,30.31,0,0,0,.41-5.68V59.45H154.5V74.2c0,1.47-.7,2.21-2.1,2.21-.85,0-1.81,0-2.87-.06-.07-.41-.16-.92-.28-1.54,1.07.08,1.95.11,2.61.11s1.15-.36,1.15-1.09V70.42h-5.45v5.9Zm-5.29-7.24h5.29V65.61h-5.21A30.43,30.43,0,0,1,140.78,69.08Zm.08-8.26v3.45h5.21V60.82Zm12.15,0h-5.45v3.45H153Zm-5.45,8.26H153V65.61h-5.45Z"/><path d="M169.44,63.53a2.32,2.32,0,0,0-.73-1.82,2.87,2.87,0,0,0-2-.67,4,4,0,0,0-1.8.46,5.89,5.89,0,0,0-1.7,1.3V61a4.91,4.91,0,0,1,1.6-1.13,5.25,5.25,0,0,1,2.1-.39,4.58,4.58,0,0,1,3.14,1,3.55,3.55,0,0,1,1.18,2.82,5.1,5.1,0,0,1-.72,2.75,8.84,8.84,0,0,1-2.5,2.37c-1.2.83-2,1.43-2.4,1.78a3.54,3.54,0,0,0-.85,1,2.73,2.73,0,0,0-.24,1.2h7.14v1.62h-9v-.72a5.94,5.94,0,0,1,.34-2.11,5.34,5.34,0,0,1,1.12-1.69,16.49,16.49,0,0,1,2.43-2,9.48,9.48,0,0,0,2.31-2.08A3.53,3.53,0,0,0,169.44,63.53Z"/><path d="M202,58.54l1.35-.72a23,23,0,0,1,1.52,2.2l-.9.52h7.53V62H197V66.5q0,6.57-2.71,9.82A11.51,11.51,0,0,0,193.26,75c1.48-1.66,2.22-4.5,2.22-8.5v-6h7.85A22.37,22.37,0,0,0,202,58.54Zm-5.07,15.27h8.58a87.06,87.06,0,0,0,3.07-10.13l1.62.45q-1.74,6.12-3.08,9.68h4.58v1.41H196.93Zm1-9.11,1.41-.48q1.16,3.38,2.23,7.57l-1.58.48C199.42,69.82,198.74,67.3,197.93,64.7Zm4.48-.93,1.42-.41a71.49,71.49,0,0,1,1.71,7.48l-1.63.43Q203.37,67.6,202.41,63.77Z"/><path d="M221.35,76v-5.9H216a12,12,0,0,1-2.24,6.4c-.33-.4-.69-.83-1.1-1.28a9.91,9.91,0,0,0,1.63-3.78,29.55,29.55,0,0,0,.41-5.68V59.1h15.12V73.85c0,1.47-.7,2.21-2.09,2.21q-1.29,0-2.88-.06c-.06-.41-.15-.92-.28-1.54,1.08.07,1.95.11,2.62.11s1.15-.36,1.15-1.09V70.06h-5.46V76Zm-5.3-7.23h5.3V65.26h-5.21A30.44,30.44,0,0,1,216.05,68.73Zm.09-8.26v3.45h5.21V60.47Zm12.15,0h-5.46v3.45h5.46Zm-5.46,8.26h5.46V65.26h-5.46Z"/><path d="M238.13,71.38a5.33,5.33,0,0,0,3.33,1.14,3.5,3.5,0,0,0,2.35-.73,2.4,2.4,0,0,0,.87-2q0-2.73-3.9-2.73h-1.2v-1.5h1.14q3.47,0,3.46-2.56,0-2.37-2.64-2.37a4.61,4.61,0,0,0-2.85,1V60a6.4,6.4,0,0,1,3.29-.82,4.35,4.35,0,0,1,3,1,3.15,3.15,0,0,1,1.12,2.49,3.5,3.5,0,0,1-2.88,3.63v0a3.81,3.81,0,0,1,2.46,1.1,3.17,3.17,0,0,1,.91,2.32,3.93,3.93,0,0,1-1.4,3.13A5.54,5.54,0,0,1,241.43,74a6.27,6.27,0,0,1-3.3-.76Z"/><path d="M66.29,98l1.13-.83A17.15,17.15,0,0,1,69.07,99l-.79.58H76v1.34H61v5.28q0,6.39-2.44,9.6c-.3-.4-.66-.82-1-1.27,1.35-1.76,2-4.45,2-8.07V99.58h8C67.17,99,66.74,98.51,66.29,98Zm-4.88,12.9h7v-2H62.78v-1.35a29.57,29.57,0,0,0,1.81-3h-2.7v-1.33h3.35c.31-.66.6-1.35.88-2.06l1.52.41c-.25.57-.51,1.12-.77,1.65H75v1.33H66.2c-.57,1.11-1.15,2.13-1.73,3.07h4v-2.36h1.48v2.36H75v1.33H69.92v2h6v1.33h-6v3.44H68.44v-3.44h-7Z"/><path d="M142.68,98.34l1.13-.83a14.53,14.53,0,0,1,1.65,1.85l-.79.58h7.68v1.33H137.41v5.29q0,6.39-2.43,9.59c-.31-.39-.66-.81-1.06-1.26q2-2.65,2-8.07V99.94h8C143.57,99.4,143.14,98.87,142.68,98.34Zm-4.88,12.9h7v-2h-5.66v-1.35a26.38,26.38,0,0,0,1.81-3h-2.7v-1.33h3.35c.31-.66.6-1.35.88-2.06l1.52.41c-.25.57-.51,1.12-.77,1.65h8.12v1.33H142.6c-.57,1.1-1.15,2.13-1.74,3.07h4v-2.36h1.49v2.36h5.08v1.33h-5.08v2h6v1.33h-6V116h-1.49v-3.44h-7Z"/><path d="M219.25,98.35l1.13-.83A15.25,15.25,0,0,1,222,99.37l-.79.58h7.68v1.34H214v5.28q0,6.39-2.43,9.6c-.31-.4-.66-.82-1.06-1.27q2-2.64,2-8.07V100h8C220.14,99.41,219.71,98.88,219.25,98.35Zm-4.88,12.9h7v-2h-5.66v-1.35a27.1,27.1,0,0,0,1.81-3h-2.7v-1.34h3.35c.31-.66.6-1.35.88-2.06l1.52.41c-.25.57-.51,1.12-.77,1.65H228v1.34h-8.78q-.85,1.65-1.74,3.06h4v-2.36h1.49V108H228v1.33h-5.08v2h6v1.34h-6V116H221.4v-3.43h-7Z"/><path d="M47.56,138.56l-5.28,14.37H40.22l-5.17-14.37h2.06L41,149.79a6.18,6.18,0,0,1,.28,1.29h.05a6,6,0,0,1,.32-1.31l3.95-11.21Z"/><path d="M62.58,152.93v-9.52c0-.79.05-1.73.14-2.83h0a10.67,10.67,0,0,1-.43,1.45l-4.74,10.9h-1l-4.73-10.82a9.57,9.57,0,0,1-.43-1.53h-.06c.07.67.1,1.64.1,2.91v9.44H49.58V138.56H52.1l4.24,9.85a13.52,13.52,0,0,1,.64,1.76H57c.33-.88.55-1.48.68-1.8L62,138.56h2.39v14.37Z"/><path d="M72.84,145.91a7.89,7.89,0,0,1,1.89-5.54,6.56,6.56,0,0,1,5.1-2.06,6.21,6.21,0,0,1,4.82,2,7.49,7.49,0,0,1,1.83,5.24,7.92,7.92,0,0,1-1.87,5.55,6.48,6.48,0,0,1-5,2,6.32,6.32,0,0,1-4.91-2A7.44,7.44,0,0,1,72.84,145.91Zm2-.15a6.27,6.27,0,0,0,1.33,4.18,4.35,4.35,0,0,0,3.48,1.58A4.55,4.55,0,0,0,83.21,150a6.2,6.2,0,0,0,1.31-4.22,6.41,6.41,0,0,0-1.28-4.29A4.38,4.38,0,0,0,79.72,140a4.45,4.45,0,0,0-3.56,1.6A6.21,6.21,0,0,0,74.79,145.76Z"/><path d="M88.59,150.23a5,5,0,0,0,1.76.94,6.51,6.51,0,0,0,2.1.37c2,0,3-.71,3-2.15a1.93,1.93,0,0,0-.32-1.08,3.33,3.33,0,0,0-.89-.86q-.57-.36-2.13-1.14a8.21,8.21,0,0,1-2.85-2,3.41,3.41,0,0,1-.68-2.11A3.35,3.35,0,0,1,90,139.36a6,6,0,0,1,3.63-1.05,7.29,7.29,0,0,1,3.15.52v2a5.65,5.65,0,0,0-3.29-.9,3.76,3.76,0,0,0-2.14.55,1.74,1.74,0,0,0-.84,1.53,1.87,1.87,0,0,0,.58,1.42,11,11,0,0,0,2.5,1.5,8.77,8.77,0,0,1,2.95,2,3.63,3.63,0,0,1-.52,5.18,6.37,6.37,0,0,1-3.82,1,9.81,9.81,0,0,1-2-.24,4.73,4.73,0,0,1-1.65-.59Z"/><path d="M124.37,138.63,119.1,153H117l-5.18-14.37h2.06l3.87,11.23a6.48,6.48,0,0,1,.28,1.29h.05a5.4,5.4,0,0,1,.33-1.3l3.94-11.22Z"/><path d="M139.39,153v-9.52c0-.78.05-1.73.14-2.83h0a9,9,0,0,1-.43,1.45L134.32,153h-1l-4.73-10.82a8.94,8.94,0,0,1-.43-1.53h0c.06.67.09,1.64.09,2.92V153H126.4V138.63h2.51l4.24,9.85a12.2,12.2,0,0,1,.64,1.77h.07c.32-.89.54-1.49.67-1.8l4.32-9.82h2.39V153Z"/><path d="M149.65,146a7.87,7.87,0,0,1,1.89-5.54,6.53,6.53,0,0,1,5.1-2.06,6.18,6.18,0,0,1,4.82,2,7.49,7.49,0,0,1,1.83,5.24,7.9,7.9,0,0,1-1.87,5.55,6.45,6.45,0,0,1-5,2.05,6.35,6.35,0,0,1-4.91-2A7.45,7.45,0,0,1,149.65,146Zm1.95-.15a6.29,6.29,0,0,0,1.33,4.18,4.34,4.34,0,0,0,3.48,1.57,4.52,4.52,0,0,0,3.61-1.51,6.17,6.17,0,0,0,1.31-4.21,6.44,6.44,0,0,0-1.28-4.3,4.37,4.37,0,0,0-3.52-1.51,4.46,4.46,0,0,0-3.56,1.59A6.23,6.23,0,0,0,151.6,145.84Z"/><path d="M165.4,150.3a5.21,5.21,0,0,0,1.76.95,6.84,6.84,0,0,0,2.1.37c2,0,3-.72,3-2.15a1.94,1.94,0,0,0-.32-1.09,3.15,3.15,0,0,0-.89-.85,22.55,22.55,0,0,0-2.13-1.14,8.34,8.34,0,0,1-2.85-2,3.5,3.5,0,0,1-.68-2.11,3.33,3.33,0,0,1,1.44-2.84,6,6,0,0,1,3.62-1.05,7.14,7.14,0,0,1,3.15.52v2a5.65,5.65,0,0,0-3.29-.9,3.78,3.78,0,0,0-2.14.55,1.74,1.74,0,0,0-.83,1.54,1.89,1.89,0,0,0,.57,1.42,11.71,11.71,0,0,0,2.5,1.49,9.09,9.09,0,0,1,3,2,3.5,3.5,0,0,1,.84,2.28,3.39,3.39,0,0,1-1.37,2.9,6.37,6.37,0,0,1-3.82,1,9.89,9.89,0,0,1-2-.24,4.75,4.75,0,0,1-1.65-.58Z"/><path d="M200.84,138.63,195.56,153H193.5l-5.18-14.37h2.06l3.87,11.23a6.46,6.46,0,0,1,.29,1.29h.05a4.94,4.94,0,0,1,.32-1.3l3.94-11.22Z"/><path d="M215.86,153v-9.52c0-.78,0-1.73.14-2.83H216a8.08,8.08,0,0,1-.43,1.45L210.78,153h-1L205,142.18a9.25,9.25,0,0,1-.42-1.53h-.06c.06.67.09,1.64.09,2.92V153h-1.77V138.63h2.52l4.23,9.85a11.09,11.09,0,0,1,.64,1.77h.07c.32-.89.55-1.49.68-1.8l4.31-9.82h2.39V153Z"/><path d="M226.12,146a7.91,7.91,0,0,1,1.88-5.54,6.56,6.56,0,0,1,5.1-2.06,6.22,6.22,0,0,1,4.83,2,7.49,7.49,0,0,1,1.83,5.24,7.9,7.9,0,0,1-1.88,5.55,6.45,6.45,0,0,1-5,2.05,6.33,6.33,0,0,1-4.9-2A7.41,7.41,0,0,1,226.12,146Zm1.95-.15A6.24,6.24,0,0,0,229.4,150a4.32,4.32,0,0,0,3.47,1.57,4.54,4.54,0,0,0,3.62-1.51,6.22,6.22,0,0,0,1.31-4.21,6.44,6.44,0,0,0-1.29-4.3,4.36,4.36,0,0,0-3.52-1.51,4.47,4.47,0,0,0-3.56,1.59A6.23,6.23,0,0,0,228.07,145.84Z"/><path d="M241.86,150.3a5.26,5.26,0,0,0,1.77.95,6.73,6.73,0,0,0,2.09.37c2,0,3-.72,3-2.15a1.87,1.87,0,0,0-.33-1.09,2.91,2.91,0,0,0-.89-.85,22,22,0,0,0-2.12-1.14,8.34,8.34,0,0,1-2.85-2,3.44,3.44,0,0,1-.69-2.11,3.33,3.33,0,0,1,1.44-2.84,6,6,0,0,1,3.63-1.05,7.09,7.09,0,0,1,3.14.52v2a5.62,5.62,0,0,0-3.28-.9,3.79,3.79,0,0,0-2.15.55,1.76,1.76,0,0,0-.83,1.54,1.86,1.86,0,0,0,.58,1.42,11.55,11.55,0,0,0,2.49,1.49,9,9,0,0,1,3,2,3.5,3.5,0,0,1,.84,2.28,3.36,3.36,0,0,1-1.37,2.9,6.32,6.32,0,0,1-3.81,1,9.81,9.81,0,0,1-2-.24,4.82,4.82,0,0,1-1.66-.58Z"/><path d="M79,199.82v4.43q0,5.94-2.42,8.76c-.32-.38-.67-.78-1-1.19,1.34-1.64,2-4.08,2-7.32v-5.94h6.23v-3.84h1.49v1.44h7.49v1.23H85.25v1.17h8.46l-.13,3c-.48,0-1-.05-1.41-.05l.13-1.69Zm-.36,11.34h4.77V205.7h1.45v5.46h2.34v-5.5h1.44v5.5h5.22v1.26H78.62Zm.84-9.56,4.06-.24v-1.24H84.9v1.16l5.56-.33.08,1.21-5.64.32V203q0,.84,1.11.84h3.73c.84,0,1.32-.29,1.45-.87a12,12,0,0,0,.22-1.32c.41.17.85.34,1.33.5a13.31,13.31,0,0,1-.33,1.37c-.26,1-1.08,1.54-2.47,1.54H85.75c-1.49,0-2.23-.65-2.23-1.94v-.5l-4,.22Zm0,5.25,1.11-.7c.74.95,1.47,2,2.17,3.08l-1.24.79C80.83,208.86,80.15,207.8,79.48,206.85Zm9.72,2.28a24.14,24.14,0,0,0,2.23-3.1l1.26.75c-.81,1.16-1.6,2.22-2.4,3.19Z"/><path d="M94.67,204.66c.75-.2,1.59-.44,2.51-.72v-4.19h-2.3V198.5h2.3v-3.58h1.41v3.58h2.17v1.25H98.59v3.74l2.24-.74c0,.61,0,1.08,0,1.43-.73.23-1.47.48-2.21.73v6c0,1.24-.54,1.88-1.62,1.93-.59,0-1.21,0-1.85,0-.06-.46-.14-1-.24-1.54a13.53,13.53,0,0,0,1.5.11c.53,0,.8-.28.8-.84v-5.15l-2.3.81Zm11.15.34a8.7,8.7,0,0,0,.49,1.44c-1.1,1-2.24,2.07-3.42,3.19a7.56,7.56,0,0,0-.85,1.06l-1-1.22a2.51,2.51,0,0,0,.58-1.71V196.33h1.41v11.3C103.75,207,104.67,206.15,105.82,205Zm3.46-9.91h1.41c0,2.12-.06,4-.1,5.56a23.06,23.06,0,0,1-1,6.82q2,2.28,3.58,4.26l-1.24,1c-1-1.32-2-2.63-3-3.92a12.7,12.7,0,0,1-4.53,4.33,9.5,9.5,0,0,0-1-1.17,10.7,10.7,0,0,0,4.79-4.93,19.09,19.09,0,0,0,.94-6.42Q109.23,197.85,109.28,195.09Zm-5.31.2,1.21-.61q1.38,2.49,2.39,4.56l-1.3.73Q105,197.22,104,195.29Z"/><path d="M113.67,206.41a20.92,20.92,0,0,0,3-6.68h-2.77v-1.27h2.89v-3.65h1.34v3.65h2.6v1.27h-2.6v3.08l.74-.75c1,.87,1.7,1.57,2.25,2.12l-1,1q-1.14-1.26-2-2.1v9.8h-1.34V203a16.65,16.65,0,0,1-2.46,5.09C114.09,207.48,113.88,206.94,113.67,206.41Zm9.78-9v6.14q0,6.64-3.32,9.63c-.35-.42-.71-.84-1.09-1.26q2.92-2.58,2.93-8V196h6.9V210c0,.62.22.93.65.93H130c.39,0,.65-.35.76-1,.12-1,.21-2,.26-3.08a13.3,13.3,0,0,0,1.41.59c-.11,1.23-.23,2.23-.34,3-.2,1.31-.83,2-1.89,2h-1c-1.19,0-1.78-.71-1.78-2.12v-12.8Z"/><path d="M132.82,211H135v-6h13.88v6h2.21v1.33H132.82Zm1.47-15.11h1.39v7.68h-1.39ZM136.4,211h2.77v-4.68H136.4Zm3.32-16.18v9.61h-1.41v-9.61Zm.34,6.69a22.83,22.83,0,0,0,3.73-6.88l1.41.43c-.32.83-.66,1.61-1,2.35h6.71v1.3h-7.35a24.79,24.79,0,0,1-2.35,3.68C140.84,202.12,140.45,201.83,140.06,201.54Zm.48,9.49h2.77v-4.68h-2.77Zm3.58-10.28.95-1c1.4,1,2.73,2.07,4,3.18l-1,1.13A51,51,0,0,0,144.12,200.75Zm3.34,5.6h-2.78V211h2.78Z"/><path d="M151.69,204.7l2.64-.66v-4.29h-2.55v-1.34h2.55v-3.6h1.44v3.6h1.9v1.34h-1.9v3.91c.65-.17,1.27-.35,1.86-.52a12.76,12.76,0,0,0,.13,1.45l-2,.56v5.73c0,1.31-.58,2-1.76,2l-1.91,0a14,14,0,0,0-.24-1.54c.73.08,1.27.13,1.63.13.56,0,.84-.29.84-.88v-5l-2.45.72Zm6.94.28h10.54v1.3h-4.56v4.62h5.45v1.37H157.41V210.9h5.75v-4.62h-4.53Zm4.44-3.79q-2.17,2-4.12,3.49l-1-1.11a36,36,0,0,0,4.08-3.4Zm-4.72-3.6h5.33c-.46-.72-1-1.44-1.52-2.17l1.18-.76c.7.85,1.28,1.63,1.77,2.32l-.92.61h5.35v3.34h-1.45v-2H159.8v2h-1.45Zm6.46,3.58,1-1q2.47,1.8,4.18,3.32l-1,1.17A43,43,0,0,0,164.81,201.17Z"/><path d="M170.56,207.89a20.28,20.28,0,0,0,2.82-6.35h-2.6v-1.22h2.9v-2.9c-.78.11-1.58.21-2.39.3a11.58,11.58,0,0,0-.39-1.28,44.64,44.64,0,0,0,6.36-1l.41,1.3c-.86.17-1.75.33-2.65.48v3.1h2.57v1.22H175V204l.72-.63c.49.51,1.22,1.32,2.17,2.43l-1.11.91c-.72-.91-1.32-1.65-1.78-2.21v8.58h-1.34v-8.89a18.93,18.93,0,0,1-2.49,5.32C171,209,170.78,208.43,170.56,207.89Zm6.55,2.93h5.31v-2.74h-4.21v-1.25h4.21v-2.52h-4.66v-1.24h10.82v1.24H183.9v2.52h4.21v1.25H183.9v2.74h5.31v1.25h-12.1Zm1.49-15.18h9.2V202h-1.41v-.76H180V202H178.6Zm7.79,1.27H180V200h6.38Z"/><path d="M198.28,195.29l1.34-.72a20.42,20.42,0,0,1,1.33,1.91l-.88.52H208v1.35H193.18v5.05q0,6.6-2.54,9.76a12.67,12.67,0,0,0-1.06-1.26c1.36-1.59,2-4.29,2-8.13V197h7.81A19.55,19.55,0,0,0,198.28,195.29Zm-4.58,9.45h6.52c-1.15-.85-2.25-1.6-3.29-2.25l.89-1c.93.57,1.81,1.12,2.65,1.67l3.36-2h-9v-1.34h11.73v1.36l-4.8,2.82.46.31-.49.36h6.09v1.37l-1.61,3.32c-.37-.2-.83-.42-1.37-.67l1.31-2.67h-4.45v4.42c0,1.49-.71,2.24-2.13,2.24-.76,0-1.69,0-2.79,0-.05-.42-.12-1-.22-1.59a19.86,19.86,0,0,0,2.56.2.93.93,0,0,0,1.06-1.06v-4.17H193.7Z"/><path d="M108.6,249.81h8.26v-5.34h-6.79v-1.41h6.79v-4.23h-7.51v-1.41H125.9v1.41h-7.44v4.23h6.79v1.41h-6.79v5.34h8.25v1.37H108.6Zm7.56-15.14,1.37-.71c.75,1.13,1.3,2,1.63,2.62l-1.46.78C117,236.12,116.51,235.23,116.16,234.67Z"/><path d="M127.4,245.67a21,21,0,0,0,3-6.68h-2.78v-1.26h2.9v-3.65h1.34v3.65h2.59V239h-2.59v3.08l.74-.74c.95.87,1.7,1.57,2.24,2.12l-1,1q-1.14-1.26-2-2.1v9.8h-1.34v-9.95A16.36,16.36,0,0,1,128,247.3C127.81,246.75,127.61,246.2,127.4,245.67Zm9.78-9v6.14q0,6.65-3.32,9.64c-.35-.43-.71-.85-1.1-1.27,2-1.72,2.93-4.39,2.93-8v-7.89h6.91v14c0,.61.21.92.65.92h.42c.4,0,.65-.34.76-1,.13-1,.21-2,.26-3.08.44.21.91.4,1.41.59-.11,1.22-.22,2.23-.33,3-.2,1.31-.83,2-1.89,2h-1c-1.18,0-1.78-.7-1.78-2.11V236.67Z"/><path d="M152.71,242.82a7.89,7.89,0,0,1,1.88-5.53,6.56,6.56,0,0,1,5.1-2.06,6.22,6.22,0,0,1,4.83,2,7.49,7.49,0,0,1,1.83,5.24,7.92,7.92,0,0,1-1.88,5.55,6.45,6.45,0,0,1-5,2.05,6.35,6.35,0,0,1-4.91-2A7.47,7.47,0,0,1,152.71,242.82Zm1.95-.14a6.26,6.26,0,0,0,1.33,4.18,4.35,4.35,0,0,0,3.47,1.57,4.54,4.54,0,0,0,3.62-1.51,6.23,6.23,0,0,0,1.31-4.22,6.43,6.43,0,0,0-1.29-4.29,4.36,4.36,0,0,0-3.52-1.51,4.47,4.47,0,0,0-3.56,1.59A6.23,6.23,0,0,0,154.66,242.68Z"/><path d="M168.45,247.14a5.13,5.13,0,0,0,1.76.94,6.58,6.58,0,0,0,2.1.38q3,0,3-2.16a1.86,1.86,0,0,0-.33-1.08,3.19,3.19,0,0,0-.89-.86c-.38-.24-1.09-.62-2.12-1.14a7.89,7.89,0,0,1-2.85-2,3.4,3.4,0,0,1-.69-2.11,3.34,3.34,0,0,1,1.44-2.84,6.06,6.06,0,0,1,3.63-1,7.09,7.09,0,0,1,3.14.52v2a5.62,5.62,0,0,0-3.28-.9,3.79,3.79,0,0,0-2.15.55,1.76,1.76,0,0,0-.83,1.54,1.89,1.89,0,0,0,.57,1.42,12,12,0,0,0,2.5,1.49,8.84,8.84,0,0,1,3,2,3.47,3.47,0,0,1,.84,2.27,3.38,3.38,0,0,1-1.37,2.91,6.34,6.34,0,0,1-3.81,1,9.81,9.81,0,0,1-2-.24,4.79,4.79,0,0,1-1.66-.59Z"/><path d="M372.14,58.89l1.35-.72A23.18,23.18,0,0,1,375,60.38l-.9.52h7.53v1.41H367.18v4.54q0,6.57-2.71,9.82a11.51,11.51,0,0,0-1.07-1.28c1.48-1.66,2.23-4.49,2.23-8.5v-6h7.84A22.5,22.5,0,0,0,372.14,58.89Zm-5.07,15.27h8.58A86.46,86.46,0,0,0,378.72,64l1.62.45q-1.74,6.12-3.08,9.68h4.58v1.41H367.07Zm1-9.11,1.41-.48c.77,2.25,1.51,4.78,2.23,7.57l-1.58.48C369.56,70.17,368.88,67.65,368.07,65.05Zm4.48-.92,1.42-.41a71.27,71.27,0,0,1,1.71,7.47l-1.63.43A75.75,75.75,0,0,0,372.55,64.13Z"/><path d="M391.49,76.32v-5.9h-5.4a12,12,0,0,1-2.24,6.4c-.33-.41-.69-.84-1.1-1.28a10,10,0,0,0,1.63-3.79,29.48,29.48,0,0,0,.41-5.68V59.45h15.12V74.2c0,1.47-.7,2.21-2.09,2.21q-1.29,0-2.88-.06c-.06-.41-.15-.92-.28-1.54,1.08.08,1.95.11,2.62.11s1.15-.36,1.15-1.09V70.42H393v5.9Zm-5.3-7.24h5.3V65.61h-5.21A30.37,30.37,0,0,1,386.19,69.08Zm.09-8.26v3.45h5.21V60.82Zm12.15,0H393v3.45h5.46ZM393,69.08h5.46V65.61H393Z"/><path d="M412.23,74.14V61.84a5.69,5.69,0,0,1-1.44,1,8.57,8.57,0,0,1-1.88.74V61.76a12.06,12.06,0,0,0,2.44-1,10.67,10.67,0,0,0,2-1.3H414V74.14Z"/><path d="M448.32,58.89l1.35-.72a23.18,23.18,0,0,1,1.52,2.21l-.9.52h7.53v1.41H443.36v4.54q0,6.57-2.71,9.82a11.51,11.51,0,0,0-1.07-1.28q2.22-2.49,2.22-8.5v-6h7.85C449.25,60.22,448.8,59.55,448.32,58.89Zm-5.07,15.27h8.58A86.46,86.46,0,0,0,454.9,64l1.62.45q-1.74,6.12-3.08,9.68H458v1.41H443.25Zm1-9.11,1.41-.48c.77,2.25,1.51,4.78,2.23,7.57l-1.58.48C445.74,70.17,445.06,67.65,444.25,65.05Zm4.47-.92,1.43-.41a73.9,73.9,0,0,1,1.71,7.47l-1.63.43A73.06,73.06,0,0,0,448.72,64.13Z"/><path d="M467.67,76.32v-5.9h-5.4a12,12,0,0,1-2.25,6.4c-.32-.41-.68-.84-1.09-1.28a10,10,0,0,0,1.63-3.79,30.31,30.31,0,0,0,.41-5.68V59.45h15.12V74.2c0,1.47-.7,2.21-2.09,2.21q-1.29,0-2.88-.06c-.06-.41-.16-.92-.28-1.54,1.08.08,2,.11,2.62.11s1.15-.36,1.15-1.09V70.42h-5.46v5.9Zm-5.3-7.24h5.3V65.61h-5.22A30.43,30.43,0,0,1,462.37,69.08Zm.08-8.26v3.45h5.22V60.82Zm12.16,0h-5.46v3.45h5.46Zm-5.46,8.26h5.46V65.61h-5.46Z"/><path d="M491,63.53a2.33,2.33,0,0,0-.74-1.82,2.85,2.85,0,0,0-2-.67,4.07,4.07,0,0,0-1.8.46,6,6,0,0,0-1.7,1.3V61a5,5,0,0,1,1.6-1.13,5.25,5.25,0,0,1,2.1-.39,4.57,4.57,0,0,1,3.14,1,3.55,3.55,0,0,1,1.19,2.82,5.11,5.11,0,0,1-.73,2.75,8.92,8.92,0,0,1-2.49,2.37c-1.2.83-2,1.43-2.41,1.78a3.71,3.71,0,0,0-.85,1,2.73,2.73,0,0,0-.24,1.2h7.14v1.62h-9v-.72a5.73,5.73,0,0,1,.34-2.11,5.3,5.3,0,0,1,1.11-1.69,16.14,16.14,0,0,1,2.44-2,9.59,9.59,0,0,0,2.3-2.08A3.54,3.54,0,0,0,491,63.53Z"/><path d="M525.05,58.43l1.36-.72a23,23,0,0,1,1.52,2.2l-.9.52h7.52v1.41H520.1v4.55q0,6.57-2.71,9.81a15.43,15.43,0,0,0-1.07-1.28c1.48-1.65,2.22-4.49,2.22-8.49v-6h7.85A21.14,21.14,0,0,0,525.05,58.43ZM520,73.7h8.58a87.68,87.68,0,0,0,3.07-10.13l1.62.44c-1.16,4.09-2.19,7.31-3.08,9.69h4.58v1.41H520Zm1-9.11,1.41-.48q1.15,3.38,2.23,7.57l-1.58.48Q522.2,68.48,521,64.59Zm4.47-.93,1.43-.41a74.12,74.12,0,0,1,1.71,7.48l-1.63.43A73.78,73.78,0,0,0,525.46,63.66Z"/><path d="M544.41,75.85V70H539a11.92,11.92,0,0,1-2.25,6.4c-.32-.41-.68-.83-1.09-1.28a10,10,0,0,0,1.63-3.78,30.39,30.39,0,0,0,.41-5.68V59h15.12V73.74c0,1.47-.7,2.2-2.1,2.2-.85,0-1.81,0-2.87,0-.06-.41-.16-.92-.28-1.54,1.08.07,1.95.11,2.62.11s1.15-.36,1.15-1.09V70h-5.46v5.9Zm-5.3-7.23h5.3V65.15h-5.22A30.48,30.48,0,0,1,539.11,68.62Zm.08-8.26v3.45h5.22V60.36Zm12.16,0h-5.46v3.45h5.46Zm-5.46,8.26h5.46V65.15h-5.46Z"/><path d="M561.19,71.27a5.29,5.29,0,0,0,3.33,1.14,3.52,3.52,0,0,0,2.35-.73,2.4,2.4,0,0,0,.87-2q0-2.73-3.91-2.73h-1.19V65.5h1.14c2.3,0,3.46-.85,3.46-2.56s-.88-2.37-2.65-2.37a4.61,4.61,0,0,0-2.84,1V59.88a6.38,6.38,0,0,1,3.29-.82,4.36,4.36,0,0,1,3,1,3.14,3.14,0,0,1,1.11,2.49,3.5,3.5,0,0,1-2.87,3.63v0a3.81,3.81,0,0,1,2.46,1.1,3.21,3.21,0,0,1,.91,2.32,3.93,3.93,0,0,1-1.4,3.13,5.55,5.55,0,0,1-3.72,1.18,6.26,6.26,0,0,1-3.29-.76Z"/><path d="M389.7,97.67l1.13-.84a16.35,16.35,0,0,1,1.65,1.86l-.79.57h7.67v1.34H384.43v5.29q0,6.38-2.43,9.59c-.31-.39-.67-.81-1.06-1.26q2-2.66,2-8.07V99.26H391C390.58,98.73,390.15,98.19,389.7,97.67Zm-4.88,12.89h7v-2h-5.66v-1.36a27.72,27.72,0,0,0,1.81-3h-2.7v-1.34h3.35c.31-.66.6-1.34.88-2.06l1.52.41c-.25.57-.51,1.12-.77,1.65h8.12v1.34h-8.79c-.57,1.1-1.14,2.12-1.73,3.06h4v-2.35h1.48v2.35h5.09v1.34h-5.09v2h6v1.34h-6v3.43h-1.48V111.9h-7Z"/><path d="M466.24,97.52l1.13-.83A15.43,15.43,0,0,1,469,98.54l-.79.58h7.67v1.33H461v5.29q0,6.39-2.43,9.59c-.31-.39-.67-.81-1.06-1.26,1.35-1.77,2-4.46,2-8.07V99.12h8C467.12,98.58,466.69,98.05,466.24,97.52Zm-4.88,12.9h7v-2h-5.66v-1.36a28.37,28.37,0,0,0,1.81-3h-2.7v-1.33h3.35c.31-.67.6-1.35.88-2.06l1.52.4c-.25.57-.51,1.12-.77,1.66h8.12v1.33h-8.79c-.57,1.1-1.15,2.12-1.73,3.06h4v-2.35h1.48v2.35H475v1.34h-5.09v2h6v1.33h-6v3.43h-1.48v-3.43h-7Z"/><path d="M542.52,97.7l1.14-.83a15.43,15.43,0,0,1,1.65,1.85l-.79.58h7.67v1.33H537.25v5.29q0,6.39-2.43,9.59-.47-.58-1.05-1.26c1.35-1.77,2-4.46,2-8.07V99.3h8C543.41,98.76,543,98.23,542.52,97.7Zm-4.88,12.9h7v-2H539v-1.36a28.37,28.37,0,0,0,1.81-3h-2.7V102.9h3.35c.31-.67.6-1.35.88-2.06l1.52.4c-.25.57-.51,1.12-.77,1.66h8.12v1.33h-8.79c-.57,1.1-1.15,2.12-1.73,3.06h4v-2.35h1.48v2.35h5.09v1.34h-5.09v2h6v1.33h-6v3.43h-1.48v-3.43h-7Z"/><path d="M435,210.57V196.2h4.1a7.91,7.91,0,0,1,5.43,1.9,6.44,6.44,0,0,1,2.17,5.11,6.94,6.94,0,0,1-2.17,5.35,7.86,7.86,0,0,1-5.58,2Zm1.86-12.72v11.08H439a5.91,5.91,0,0,0,4.28-1.49,5.61,5.61,0,0,0,1.53-4.19,5,5,0,0,0-1.57-4,6.14,6.14,0,0,0-4.15-1.36Z"/><path d="M448.58,205.55a5.52,5.52,0,0,1,1.42-4,5.08,5.08,0,0,1,3.85-1.47,4.72,4.72,0,0,1,3.62,1.41,6.35,6.35,0,0,1-.09,7.84,4.93,4.93,0,0,1-3.76,1.49,4.83,4.83,0,0,1-3.67-1.44A5.31,5.31,0,0,1,448.58,205.55Zm1.85-.05a4.07,4.07,0,0,0,.9,2.79,3,3,0,0,0,2.4,1,2.89,2.89,0,0,0,2.38-1,4.43,4.43,0,0,0,.82-2.86,4.49,4.49,0,0,0-.82-2.88,2.92,2.92,0,0,0-2.38-1,3,3,0,0,0-2.41,1.05A4.33,4.33,0,0,0,450.43,205.5Z"/><path d="M468.43,210.11a5.44,5.44,0,0,1-2.84.7,4.68,4.68,0,0,1-3.58-1.43,5.15,5.15,0,0,1-1.35-3.7,5.66,5.66,0,0,1,1.46-4.07,5.11,5.11,0,0,1,3.91-1.54,5.39,5.39,0,0,1,2.41.5v1.8a4,4,0,0,0-2.41-.8,3.27,3.27,0,0,0-2.54,1.08,4.14,4.14,0,0,0-1,2.88,4,4,0,0,0,.92,2.78,3.23,3.23,0,0,0,2.49,1,4.16,4.16,0,0,0,2.51-.87Z"/><path d="M479.59,210.57h-2.48l-4.39-4.94h0v4.94h-1.82V195.38h1.82V205h0l4.17-4.7h2.34l-4.64,4.94Z"/><path d="M489.16,205.91H482a3.66,3.66,0,0,0,.9,2.53,3.14,3.14,0,0,0,2.39.9,5.05,5.05,0,0,0,3.16-1.11v1.63a6.15,6.15,0,0,1-3.59.95,4.39,4.39,0,0,1-3.47-1.41,5.65,5.65,0,0,1-1.25-3.91,5.59,5.59,0,0,1,1.37-3.89,4.37,4.37,0,0,1,3.4-1.53,4,4,0,0,1,3.14,1.29,5.32,5.32,0,0,1,1.13,3.63Zm-1.81-1.46a3.27,3.27,0,0,0-.66-2.15,2.29,2.29,0,0,0-1.83-.76,2.54,2.54,0,0,0-1.88.8,3.77,3.77,0,0,0-1,2.11Z"/><path d="M497.09,202.11a2.12,2.12,0,0,0-1.26-.32,2.07,2.07,0,0,0-1.74,1,4.48,4.48,0,0,0-.69,2.61v5.19h-1.82V200.31h1.82v2.09h0c.52-1.51,1.42-2.27,2.69-2.27a2.67,2.67,0,0,1,1,.14Z"/><path d="M430.85,250.22h8.26v-5.34h-6.79v-1.41h6.79v-4.23h-7.52v-1.41h16.55v1.41H440.7v4.23h6.79v1.41H440.7v5.34H449v1.38H430.85Zm7.55-15.14,1.38-.7c.75,1.12,1.29,2,1.63,2.61l-1.47.78C439.27,236.54,438.76,235.64,438.4,235.08Z"/><path d="M449.65,246.09a21.15,21.15,0,0,0,3-6.68h-2.78v-1.27h2.9v-3.65h1.33v3.65h2.6v1.27h-2.6v3.08l.74-.75c1,.87,1.71,1.58,2.25,2.12l-1,1c-.76-.84-1.42-1.54-2-2.1v9.8h-1.33v-10a16.88,16.88,0,0,1-2.47,5.09C450.06,247.16,449.86,246.62,449.65,246.09Zm9.77-9v6.14q0,6.65-3.32,9.63c-.34-.42-.71-.84-1.09-1.26q2.92-2.58,2.93-8v-7.88h6.9v13.95c0,.62.22.93.65.93h.43c.39,0,.65-.35.76-1,.12-1,.21-2,.26-3.08a13.3,13.3,0,0,0,1.41.59c-.11,1.23-.22,2.23-.33,3-.2,1.31-.83,2-1.9,2h-1c-1.19,0-1.78-.71-1.78-2.12v-12.8Z"/><path d="M475,243.24a7.87,7.87,0,0,1,1.88-5.54,6.56,6.56,0,0,1,5.1-2.06,6.22,6.22,0,0,1,4.83,2,7.55,7.55,0,0,1,1.82,5.24,7.88,7.88,0,0,1-1.87,5.55,6.45,6.45,0,0,1-5,2.05,6.35,6.35,0,0,1-4.91-2A7.45,7.45,0,0,1,475,243.24Zm1.94-.15a6.29,6.29,0,0,0,1.33,4.18,4.34,4.34,0,0,0,3.48,1.57,4.52,4.52,0,0,0,3.61-1.51,6.17,6.17,0,0,0,1.31-4.21,6.44,6.44,0,0,0-1.28-4.3,4.37,4.37,0,0,0-3.52-1.51,4.44,4.44,0,0,0-3.56,1.6A6.19,6.19,0,0,0,476.9,243.09Z"/><path d="M490.7,247.55a5.13,5.13,0,0,0,1.76.95,6.56,6.56,0,0,0,2.1.37c2,0,3-.72,3-2.15a2,2,0,0,0-.32-1.09,3.16,3.16,0,0,0-.89-.85,22.55,22.55,0,0,0-2.13-1.14,8.34,8.34,0,0,1-2.85-2,3.5,3.5,0,0,1-.68-2.11,3.33,3.33,0,0,1,1.44-2.84,6,6,0,0,1,3.62-1.05,7.14,7.14,0,0,1,3.15.52v2a5.65,5.65,0,0,0-3.29-.9,3.86,3.86,0,0,0-2.14.55,1.74,1.74,0,0,0-.83,1.54,1.89,1.89,0,0,0,.57,1.42,12,12,0,0,0,2.5,1.49,9.09,9.09,0,0,1,3,2,3.5,3.5,0,0,1,.84,2.28,3.39,3.39,0,0,1-1.37,2.9,6.29,6.29,0,0,1-3.81,1,10.39,10.39,0,0,1-2-.23,5,5,0,0,1-1.66-.59Z"/></g></svg>